  0
SECTION
  2
HEADER
  9
$ACADVER
  1
AC1009
  9
$INSBASE
 10
0.0
 20
0.0
 30
0.0
  9
$EXTMIN
 10
-0.0000000000000177
 20
-0.1230677076036071
 30
0.0
  9
$EXTMAX
 10
120.0
 20
71.3312416963669307
 30
0.0
  9
$LIMMIN
 10
0.0
 20
0.0
  9
$LIMMAX
 10
12.0
 20
9.0
  9
$ORTHOMODE
 70
     0
  9
$REGENMODE
 70
     1
  9
$FILLMODE
 70
     1
  9
$QTEXTMODE
 70
     0
  9
$MIRRTEXT
 70
     0
  9
$DRAGMODE
 70
     2
  9
$LTSCALE
 40
1.0
  9
$OSMODE
 70
    39
  9
$ATTMODE
 70
     1
  9
$TEXTSIZE
 40
0.2
  9
$TRACEWID
 40
0.05
  9
$TEXTSTYLE
  7
STANDARD
  9
$CLAYER
  8
0
  9
$CELTYPE
  6
BYLAYER
  9
$CECOLOR
 62
   256
  9
$DIMSCALE
 40
1.0
  9
$DIMASZ
 40
0.18
  9
$DIMEXO
 40
0.0625
  9
$DIMDLI
 40
0.38
  9
$DIMRND
 40
0.0
  9
$DIMDLE
 40
0.0
  9
$DIMEXE
 40
0.18
  9
$DIMTP
 40
0.0
  9
$DIMTM
 40
0.0
  9
$DIMTXT
 40
0.18
  9
$DIMCEN
 40
0.09
  9
$DIMTSZ
 40
0.0
  9
$DIMTOL
 70
     0
  9
$DIMLIM
 70
     0
  9
$DIMTIH
 70
     1
  9
$DIMTOH
 70
     1
  9
$DIMSE1
 70
     0
  9
$DIMSE2
 70
     0
  9
$DIMTAD
 70
     0
  9
$DIMZIN
 70
     0
  9
$DIMBLK
  1

  9
$DIMASO
 70
     1
  9
$DIMSHO
 70
     1
  9
$DIMPOST
  1

  9
$DIMAPOST
  1

  9
$DIMALT
 70
     0
  9
$DIMALTD
 70
     2
  9
$DIMALTF
 40
25.3999999999999986
  9
$DIMLFAC
 40
1.0
  9
$DIMTOFL
 70
     0
  9
$DIMTVP
 40
0.0
  9
$DIMTIX
 70
     0
  9
$DIMSOXD
 70
     0
  9
$DIMSAH
 70
     0
  9
$DIMBLK1
  1

  9
$DIMBLK2
  1

  9
$DIMSTYLE
  2
STANDARD
  9
$DIMCLRD
 70
     0
  9
$DIMCLRE
 70
     0
  9
$DIMCLRT
 70
     0
  9
$DIMTFAC
 40
1.0
  9
$DIMGAP
 40
0.09
  9
$LUNITS
 70
     2
  9
$LUPREC
 70
     4
  9
$SKETCHINC
 40
0.1
  9
$FILLETRAD
 40
0.0
  9
$AUNITS
 70
     0
  9
$AUPREC
 70
     0
  9
$MENU
  1
.
  9
$ELEVATION
 40
0.0
  9
$PELEVATION
 40
0.0
  9
$THICKNESS
 40
0.0
  9
$LIMCHECK
 70
     0
  9
$BLIPMODE
 70
     0
  9
$CHAMFERA
 40
0.0
  9
$CHAMFERB
 40
0.0
  9
$SKPOLY
 70
     0
  9
$TDCREATE
 40
2458314.5446643522009254
  9
$TDUPDATE
 40
2458314.5621643518097699
  9
$TDINDWG
 40
0.0175
  9
$TDUSRTIMER
 40
0.0175
  9
$USRTIMER
 70
     1
  9
$ANGBASE
 50
0.0
  9
$ANGDIR
 70
     0
  9
$PDMODE
 70
     0
  9
$PDSIZE
 40
0.0
  9
$PLINEWID
 40
0.0
  9
$COORDS
 70
     1
  9
$SPLFRAME
 70
     0
  9
$SPLINETYPE
 70
     6
  9
$SPLINESEGS
 70
     8
  9
$ATTDIA
 70
     1
  9
$ATTREQ
 70
     1
  9
$HANDLING
 70
     1
  9
$HANDSEED
  5
317
  9
$SURFTAB1
 70
     6
  9
$SURFTAB2
 70
     6
  9
$SURFTYPE
 70
     6
  9
$SURFU
 70
     6
  9
$SURFV
 70
     6
  9
$UCSNAME
  2

  9
$UCSORG
 10
0.0
 20
0.0
 30
0.0
  9
$UCSXDIR
 10
1.0
 20
0.0
 30
0.0
  9
$UCSYDIR
 10
0.0
 20
1.0
 30
0.0
  9
$PUCSNAME
  2

  9
$PUCSORG
 10
0.0
 20
0.0
 30
0.0
  9
$PUCSXDIR
 10
1.0
 20
0.0
 30
0.0
  9
$PUCSYDIR
 10
0.0
 20
1.0
 30
0.0
  9
$USERI1
 70
     0
  9
$USERI2
 70
     0
  9
$USERI3
 70
     0
  9
$USERI4
 70
     0
  9
$USERI5
 70
     0
  9
$USERR1
 40
0.0
  9
$USERR2
 40
0.0
  9
$USERR3
 40
0.0
  9
$USERR4
 40
0.0
  9
$USERR5
 40
0.0
  9
$WORLDVIEW
 70
     1
  9
$SHADEDGE
 70
     3
  9
$SHADEDIF
 70
    70
  9
$TILEMODE
 70
     1
  9
$MAXACTVP
 70
    64
  9
$PLIMCHECK
 70
     0
  9
$PEXTMIN
 10
0.0
 20
0.0
 30
0.0
  9
$PEXTMAX
 10
0.0
 20
0.0
 30
0.0
  9
$PLIMMIN
 10
0.0
 20
0.0
  9
$PLIMMAX
 10
12.0
 20
9.0
  9
$UNITMODE
 70
     0
  9
$VISRETAIN
 70
     1
  9
$PLINEGEN
 70
     0
  9
$PSLTSCALE
 70
     1
  0
ENDSEC
  0
SECTION
  2
TABLES
  0
TABLE
  2
VPORT
 70
     1
  0
VPORT
  2
*ACTIVE
 70
     0
 10
0.0
 20
0.0
 11
1.0
 21
1.0
 12
93.8833646055938544
 22
42.7446356403688696
 13
0.0
 23
0.0
 14
0.5
 24
0.5
 15
0.5
 25
0.5
 16
0.0
 26
0.0
 36
1.0
 17
0.0
 27
0.0
 37
0.0
 40
120.9173105768168028
 41
1.669102296450939
 42
50.0
 43
0.0
 44
0.0
 50
0.0
 51
0.0
 71
     0
 72
  1000
 73
     1
 74
     3
 75
     0
 76
     1
 77
     0
 78
     0
  0
ENDTAB
  0
TABLE
  2
LTYPE
 70
     2
  0
LTYPE
  2
CONTINUOUS
 70
     0
  3
Solid line
 72
    65
 73
     0
 40
0.0
  0
ENDTAB
  0
TABLE
  2
LAYER
 70
     2
  0
LAYER
  2
0
 70
     0
 62
     7
  6
CONTINUOUS
  0
LAYER
  2
DEFPOINTS
 70
     0
 62
     7
  6
CONTINUOUS
  0
ENDTAB
  0
TABLE
  2
STYLE
 70
     2
  0
STYLE
  2
STANDARD
 70
     0
 40
0.0
 41
1.0
 50
0.0
 71
     0
 42
0.2
  3
txt
  4

  0
STYLE
  2
ANNOTATIVE
 70
     0
 40
0.0
 41
1.0
 50
0.0
 71
     0
 42
0.2
  3
txt
  4

  0
ENDTAB
  0
TABLE
  2
VIEW
 70
     0
  0
ENDTAB
  0
TABLE
  2
UCS
 70
     0
  0
ENDTAB
  0
TABLE
  2
APPID
 70
     8
  0
APPID
  2
ACAD
 70
     0
  0
APPID
  2
ACADANNOPO
 70
     0
  0
APPID
  2
ACADANNOTATIVE
 70
     0
  0
APPID
  2
ACAD_DSTYLE_DIMJAG
 70
     0
  0
APPID
  2
ACAD_DSTYLE_DIMTALN
 70
     0
  0
APPID
  2
ACAD_MLEADERVER
 70
     0
  0
APPID
  2
ACAD_NAV_VCDISPLAY
 70
     0
  0
APPID
  2
ACAD_EXEMPT_FROM_CAD_STANDARDS
 70
     0
  0
ENDTAB
  0
TABLE
  2
DIMSTYLE
 70
     3
  0
DIMSTYLE
  2
STANDARD
 70
     0
  3

  4

  5

  6

  7

 40
1.0
 41
0.18
 42
0.0625
 43
0.38
 44
0.18
 45
0.0
 46
0.0
 47
0.0
 48
0.0
140
0.18
141
0.09
142
0.0
143
25.3999999999999986
144
1.0
145
0.0
146
1.0
147
0.09
 71
     0
 72
     0
 73
     1
 74
     1
 75
     0
 76
     0
 77
     0
 78
     0
170
     0
171
     2
172
     0
173
     0
174
     0
175
     0
176
     0
177
     0
178
     0
  0
DIMSTYLE
  2
ANNOTATIVE
 70
     0
  3

  4

  5

  6

  7

 40
0.0
 41
0.18
 42
0.0625
 43
0.38
 44
0.18
 45
0.0
 46
0.0
 47
0.0
 48
0.0
140
0.18
141
0.09
142
0.0
143
25.3999999999999986
144
1.0
145
0.0
146
1.0
147
0.09
 71
     0
 72
     0
 73
     1
 74
     1
 75
     0
 76
     0
 77
     0
 78
     0
170
     0
171
     2
172
     0
173
     0
174
     0
175
     0
176
     0
177
     0
178
     0
  0
ENDTAB
  0
ENDSEC
  0
SECTION
  2
BLOCKS
  0
BLOCK
  8
0
  2
$MODEL_SPACE
 70
     0
 10
0.0
 20
0.0
 30
0.0
  3
$MODEL_SPACE
  1

  0
ENDBLK
  5
21
  8
0
  0
BLOCK
 67
     1
  8
0
  2
$PAPER_SPACE
 70
     0
 10
0.0
 20
0.0
 30
0.0
  3
$PAPER_SPACE
  1

  0
ENDBLK
  5
5B
 67
     1
  8
0
  0
BLOCK
  8
0
  2
*D2
 70
     1
 10
0.0
 20
0.0
 30
0.0
  3
*D2
  1

  0
LINE
  5
253
  8
0
 62
     0
 10
24.0000000000000391
 20
25.0625
 30
0.0
 11
24.0000000000000391
 21
71.3312416963669307
 31
0.0
  0
LINE
  5
254
  8
0
 62
     0
 10
59.0000000000000213
 20
35.0625
 30
0.0
 11
59.0000000000000213
 21
71.3312416963669307
 31
0.0
  0
LINE
  5
255
  8
0
 62
     0
 10
24.1800000000000388
 20
71.1512416963669239
 30
0.0
 11
40.966814461118723
 21
71.1512416963669239
 31
0.0
  0
LINE
  5
256
  8
0
 62
     0
 10
58.8200000000000074
 20
71.1512416963669239
 30
0.0
 11
42.0331855388813267
 21
71.1512416963669239
 31
0.0
  0
SOLID
  5
257
  8
0
 62
     0
 10
24.1800000000000388
 20
71.181241696366925
 30
0.0
 11
24.1800000000000388
 21
71.1212416963669227
 31
0.0
 12
24.0000000000000391
 22
71.1512416963669239
 32
0.0
 13
24.0000000000000391
 23
71.1512416963669239
 33
0.0
  0
SOLID
  5
258
  8
0
 62
     0
 10
58.8200000000000074
 20
71.181241696366925
 30
0.0
 11
58.8200000000000074
 21
71.1212416963669227
 31
0.0
 12
59.0000000000000213
 22
71.1512416963669239
 32
0.0
 13
59.0000000000000213
 23
71.1512416963669239
 33
0.0
  0
INSERT
  5
259
  8
0
  2
*U3
 10
0.0
 20
0.0
 30
0.0
  0
POINT
  5
25A
  8
DEFPOINTS
 62
     0
 10
24.0000000000000391
 20
25.0
 30
0.0
  0
POINT
  5
25B
  8
DEFPOINTS
 62
     0
 10
59.0000000000000213
 20
35.0
 30
0.0
  0
POINT
  5
25C
  8
DEFPOINTS
 62
     0
 10
59.0000000000000213
 20
71.1512416963669239
 30
0.0
  0
ENDBLK
  5
247
  8
0
  0
BLOCK
  8
0
  2
*U3
 70
     1
 10
0.0
 20
0.0
 30
0.0
  3
*U3
  1

  0
TEXT
  5
314
  8
0
 62
     0
 10
41.0462551159618201
 20
71.062837876448782
 30
0.0
 40
0.18
  1
35.0000
  0
ENDBLK
  5
316
  8
0
  0
ENDSEC
  0
SECTION
  2
ENTITIES
  0
LINE
  5
1EF
  8
0
 10
10.0
 20
60.0
 30
0.0
 11
-0.0000000000000016
 21
50.0
 31
0.0
  0
LINE
  5
1F0
  8
0
 10
10.0
 20
0.0
 30
0.0
 11
0.0000000000000014
 21
10.0
 31
0.0
  0
LINE
  5
1F3
  8
0
 10
0.0000000000000006
 20
10.0
 30
0.0
 11
0.0000000000000012
 21
20.0
 31
0.0
  0
LINE
  5
1F4
  8
0
 10
0.0000000000000012
 20
20.0
 30
0.0
 11
10.0
 21
20.0
 31
0.0
  0
LINE
  5
1F6
  8
0
 10
10.0
 20
20.0
 30
0.0
 11
9.9999999999999982
 21
12.0
 31
0.0
  0
LINE
  5
1F9
  8
0
 10
12.0
 20
10.0
 30
0.0
 11
10.0
 21
12.0
 31
0.0
  0
LINE
  5
1FE
  8
0
 10
12.0
 20
10.0
 30
0.0
 11
22.0
 21
9.9999999999999805
 31
0.0
  0
LINE
  5
201
  8
0
 10
24.0
 20
11.9999999999999698
 30
0.0
 11
22.0
 21
9.9999999999999805
 31
0.0
  0
LINE
  5
205
  8
0
 10
0.0000000000000024
 20
35.0000000000000071
 30
0.0
 11
9.9999999999999947
 21
25.0000000000000107
 31
0.0
  0
LINE
  5
206
  8
0
 10
9.9999999999999947
 20
25.0000000000000107
 30
0.0
 11
24.0000000000000391
 21
25.0
 31
0.0
  0
LINE
  5
207
  8
0
 10
24.0
 20
11.9999999999999698
 30
0.0
 11
24.0000000000000284
 21
25.0
 31
0.0
  0
LINE
  5
208
  8
0
 10
10.0
 20
60.0
 30
0.0
 11
24.0000000000000284
 21
60.0
 31
0.0
  0
LINE
  5
20B
  8
0
 10
23.9999999999999609
 20
-0.0000000000000199
 30
0.0
 11
34.0
 21
9.999999999999952
 31
0.0
  0
LINE
  5
20C
  8
0
 10
24.0000000000000284
 20
60.0
 30
0.0
 11
34.0000000000000284
 21
50.0
 31
0.0
  0
LINE
  5
211
  8
0
 10
22.0000000000000107
 20
47.5
 30
0.0
 11
12.0000000000000107
 21
47.5
 31
0.0
  0
LINE
  5
212
  8
0
 10
12.0000000000000107
 20
47.5
 30
0.0
 11
12.0000000000000107
 21
37.5
 31
0.0
  0
LINE
  5
213
  8
0
 10
12.0000000000000107
 20
37.5
 30
0.0
 11
22.0000000000000107
 21
37.5
 31
0.0
  0
LINE
  5
214
  8
0
 10
22.0000000000000107
 20
37.5
 30
0.0
 11
22.0000000000000107
 21
47.5
 31
0.0
  0
LINE
  5
215
  8
0
 10
-0.0000000000000016
 20
50.0
 30
0.0
 11
-0.0000000000000177
 21
35.0000000000000284
 31
0.0
  0
LINE
  5
227
  8
0
 10
34.0000000000000284
 20
60.0
 30
0.0
 11
49.0000000000000284
 21
60.0
 31
0.0
  0
LINE
  5
229
  8
0
 10
49.0000000000000213
 20
0.0
 30
0.0
 11
34.0000000000000213
 21
0.0000000000000018
 31
0.0
  0
LINE
  5
22B
  8
0
 10
10.0
 20
0.0
 30
0.0
 11
23.9999999999999893
 21
0.0
 31
0.0
  0
LINE
  5
22C
  8
0
 10
73.0000000000000568
 20
0.0000000000000071
 30
0.0
 11
83.0000000000000568
 21
10.0000000000000107
 31
0.0
  0
LINE
  5
22D
  8
0
 10
73.0000000000000284
 20
60.0
 30
0.0
 11
83.0000000000000142
 21
50.0000000000000071
 31
0.0
  0
LINE
  5
22E
  8
0
 10
83.0000000000000142
 20
50.0000000000000071
 30
0.0
 11
83.0000000000000426
 21
40.0000000000000071
 31
0.0
  0
LINE
  5
22F
  8
0
 10
83.0000000000000426
 20
40.0000000000000071
 30
0.0
 11
73.0000000000000426
 21
40.0000000000000071
 31
0.0
  0
LINE
  5
230
  8
0
 10
73.0000000000000426
 20
40.0000000000000071
 30
0.0
 11
73.0000000000000284
 21
48.0
 31
0.0
  0
LINE
  5
231
  8
0
 10
71.0000000000000284
 20
50.0
 30
0.0
 11
73.0000000000000284
 21
48.0
 31
0.0
  0
LINE
  5
232
  8
0
 10
71.0000000000000284
 20
50.0
 30
0.0
 11
61.0000000000000284
 21
50.0000000000000213
 31
0.0
  0
LINE
  5
233
  8
0
 10
59.0000000000000284
 20
48.0000000000000284
 30
0.0
 11
61.0000000000000284
 21
50.0000000000000213
 31
0.0
  0
LINE
  5
234
  8
0
 10
83.0000000000000426
 20
25.0000000000000107
 30
0.0
 11
73.0000000000000426
 21
35.0
 31
0.0
  0
LINE
  5
235
  8
0
 10
73.0000000000000426
 20
35.0
 30
0.0
 11
59.0
 21
35.0
 31
0.0
  0
LINE
  5
236
  8
0
 10
59.0000000000000284
 20
48.0000000000000284
 30
0.0
 11
59.0000000000000213
 21
35.0
 31
0.0
  0
LINE
  5
237
  8
0
 10
73.0000000000000568
 20
0.0000000000000071
 30
0.0
 11
59.0000000000000284
 21
0.0
 31
0.0
  0
LINE
  5
239
  8
0
 10
59.0000000000000568
 20
60.0000000000000213
 30
0.0
 11
49.0000000000000284
 21
50.0000000000000426
 31
0.0
  0
LINE
  5
23A
  8
0
 10
59.0000000000000284
 20
0.0
 30
0.0
 11
49.0000000000000213
 21
10.0
 31
0.0
  0
LINE
  5
23B
  8
0
 10
61.0000000000000426
 20
12.5000000000000107
 30
0.0
 11
71.0000000000000426
 21
12.5000000000000107
 31
0.0
  0
LINE
  5
23C
  8
0
 10
71.0000000000000426
 20
12.5000000000000107
 30
0.0
 11
71.0000000000000284
 21
22.5000000000000107
 31
0.0
  0
LINE
  5
23D
  8
0
 10
71.0000000000000284
 20
22.5000000000000107
 30
0.0
 11
61.0000000000000284
 21
22.5000000000000107
 31
0.0
  0
LINE
  5
23E
  8
0
 10
61.0000000000000284
 20
22.5000000000000107
 30
0.0
 11
61.0000000000000426
 21
12.5000000000000107
 31
0.0
  0
LINE
  5
23F
  8
0
 10
83.0000000000000568
 20
10.0000000000000107
 30
0.0
 11
83.0000000000000568
 21
24.9999999999999893
 31
0.0
  0
LINE
  5
241
  8
0
 10
73.0000000000000284
 20
60.0
 30
0.0
 11
59.0000000000000426
 21
60.0
 31
0.0
  0
LINE
  5
2BB
  8
0
 10
49.0000000000000284
 20
60.0
 30
0.0
 11
49.0000000000000284
 21
50.0000000000000426
 31
0.0
  0
LINE
  5
2BC
  8
0
 10
34.0000000000000284
 20
60.0
 30
0.0
 11
34.0000000000000284
 21
50.0
 31
0.0
  0
LINE
  5
2BD
  8
0
 10
34.0
 20
9.999999999999952
 30
0.0
 11
33.9999999999999716
 21
0.0000000000000018
 31
0.0
  0
LINE
  5
2BE
  8
0
 10
49.0000000000000213
 20
10.0
 30
0.0
 11
49.0000000000000213
 21
0.0
 31
0.0
  0
ENDSEC
  0
EOF
