G04 #@! TF.FileFunction,Profile,NP*
%FSLAX46Y46*%
G04 Gerber Fmt 4.6, Leading zero omitted, Abs format (unit mm)*
G04 Created by KiCad (PCBNEW 4.0.7) date 07/15/18 15:36:16*
%MOMM*%
%LPD*%
G01*
G04 APERTURE LIST*
%ADD10C,0.100000*%
G04 APERTURE END LIST*
D10*
X187501100Y-107881101D02*
X187501100Y-105003600D01*
X192501100Y-107881101D02*
X192501100Y-105003600D01*
X192501100Y-107881101D02*
G75*
G02X187501100Y-107881101I-2500000J-3122499D01*
G01*
X192501100Y-105003600D02*
X197501100Y-105003600D01*
X182501100Y-105003600D02*
X187501100Y-105003600D01*
X192501100Y-45003600D02*
X197501100Y-45003600D01*
X187501100Y-42126099D02*
X187501100Y-45003600D01*
X192501100Y-42126099D02*
X192501100Y-45003600D01*
X187501100Y-42126099D02*
G75*
G02X192501100Y-42126099I2500000J3122499D01*
G01*
X182501100Y-45003600D02*
X187501100Y-45003600D01*
X197501100Y-95003600D02*
X197501100Y-105003600D01*
X182501100Y-95003600D02*
X182501100Y-105003600D01*
X182501100Y-45003600D02*
X182501100Y-55003600D01*
X197501100Y-45003600D02*
X197501100Y-55003600D01*
X221501100Y-45003600D02*
X207501100Y-45003600D01*
X231501100Y-95003600D02*
X231501100Y-80003600D01*
X209501100Y-82503600D02*
X209501100Y-92503600D01*
X219501100Y-82503600D02*
X209501100Y-82503600D01*
X219501100Y-92503600D02*
X219501100Y-82503600D01*
X209501100Y-92503600D02*
X219501100Y-92503600D01*
X207501100Y-105003600D02*
X197501100Y-95003600D01*
X207501100Y-45003600D02*
X197501100Y-55003600D01*
X221501100Y-105003600D02*
X207501100Y-105003600D01*
X207501100Y-57003600D02*
X207501100Y-70003600D01*
X221501100Y-70003600D02*
X207501100Y-70003600D01*
X231501100Y-80003600D02*
X221501100Y-70003600D01*
X207501100Y-57003600D02*
X209501100Y-55003600D01*
X219501100Y-55003600D02*
X209501100Y-55003600D01*
X219501100Y-55003600D02*
X221501100Y-57003600D01*
X221501100Y-65003600D02*
X221501100Y-57003600D01*
X231501100Y-65003600D02*
X221501100Y-65003600D01*
X231501100Y-55003600D02*
X231501100Y-65003600D01*
X221501100Y-45003600D02*
X231501100Y-55003600D01*
X221501100Y-105003600D02*
X231501100Y-95003600D01*
X158501100Y-105003600D02*
X172501100Y-105003600D01*
X148501100Y-55003600D02*
X148501100Y-70003600D01*
X170501100Y-67503600D02*
X170501100Y-57503600D01*
X160501100Y-67503600D02*
X170501100Y-67503600D01*
X160501100Y-57503600D02*
X160501100Y-67503600D01*
X170501100Y-57503600D02*
X160501100Y-57503600D01*
X172501100Y-45003600D02*
X182501100Y-55003600D01*
X172501100Y-105003600D02*
X182501100Y-95003600D01*
X158501100Y-45003600D02*
X172501100Y-45003600D01*
X172501100Y-93003600D02*
X172501100Y-80003600D01*
X158501100Y-80003600D02*
X172501100Y-80003600D01*
X148501100Y-70003600D02*
X158501100Y-80003600D01*
X172501100Y-93003600D02*
X170501100Y-95003600D01*
X160501100Y-95003600D02*
X170501100Y-95003600D01*
X160501100Y-95003600D02*
X158501100Y-93003600D01*
X158501100Y-85003600D02*
X158501100Y-93003600D01*
X148501100Y-85003600D02*
X158501100Y-85003600D01*
X148501100Y-95003600D02*
X148501100Y-85003600D01*
X158501100Y-105003600D02*
X148501100Y-95003600D01*
X158501100Y-45003600D02*
X148501100Y-55003600D01*
M02*
