G04 #@! TF.FileFunction,Copper,L1,Top,Signal*
%FSLAX46Y46*%
G04 Gerber Fmt 4.6, Leading zero omitted, Abs format (unit mm)*
G04 Created by KiCad (PCBNEW 4.0.7) date 07/15/18 15:36:16*
%MOMM*%
%LPD*%
G01*
G04 APERTURE LIST*
%ADD10C,0.100000*%
%ADD11C,3.500000*%
%ADD12C,4.572000*%
%ADD13R,1.800000X1.800000*%
%ADD14O,1.800000X1.800000*%
%ADD15O,2.032000X1.727200*%
%ADD16C,1.700000*%
%ADD17O,1.700000X1.700000*%
%ADD18R,0.800000X0.500000*%
%ADD19R,0.800000X0.300000*%
%ADD20R,1.600000X1.600000*%
%ADD21O,1.600000X1.600000*%
%ADD22C,6.000000*%
%ADD23C,0.152400*%
%ADD24C,0.254000*%
G04 APERTURE END LIST*
D10*
D11*
X156600000Y-68800000D03*
X156600000Y-56100000D03*
D12*
X171840000Y-50537400D03*
X171840000Y-74362600D03*
X194065000Y-74362600D03*
X194065000Y-50537400D03*
D13*
X162900000Y-102400000D03*
D14*
X165440000Y-102400000D03*
X167980000Y-102400000D03*
D15*
X178600000Y-57700000D03*
X178600000Y-60240000D03*
X178600000Y-62780000D03*
X178600000Y-65320000D03*
X178600000Y-67860000D03*
X178600000Y-70400000D03*
X178600000Y-72940000D03*
X178600000Y-75480000D03*
X178600000Y-78020000D03*
X178600000Y-80560000D03*
X178600000Y-83100000D03*
X178600000Y-85640000D03*
X178600000Y-88180000D03*
X178600000Y-90720000D03*
X178600000Y-93260000D03*
X201460000Y-57700000D03*
X201460000Y-88180000D03*
X201460000Y-90720000D03*
X201460000Y-85640000D03*
X201460000Y-70400000D03*
X201460000Y-67860000D03*
X201460000Y-72940000D03*
X201460000Y-93260000D03*
X201460000Y-78020000D03*
X201460000Y-75480000D03*
X201460000Y-80560000D03*
X201460000Y-83100000D03*
X201460000Y-62780000D03*
X201460000Y-65320000D03*
X201460000Y-60240000D03*
D16*
X227970000Y-61970000D03*
D17*
X225430000Y-61970000D03*
X227970000Y-59430000D03*
X225430000Y-59430000D03*
D18*
X222950000Y-96400000D03*
D19*
X222950000Y-97300000D03*
D18*
X222950000Y-98200000D03*
X224650000Y-98200000D03*
D19*
X224650000Y-97300000D03*
D18*
X224650000Y-96400000D03*
X154650000Y-96400000D03*
D19*
X154650000Y-97300000D03*
D18*
X154650000Y-98200000D03*
X156350000Y-98200000D03*
D19*
X156350000Y-97300000D03*
D18*
X156350000Y-96400000D03*
X155350000Y-50600000D03*
D19*
X155350000Y-51500000D03*
D18*
X155350000Y-52400000D03*
X157050000Y-52400000D03*
D19*
X157050000Y-51500000D03*
D18*
X157050000Y-50600000D03*
X223450000Y-50600000D03*
D19*
X223450000Y-51500000D03*
D18*
X223450000Y-52400000D03*
X225150000Y-52400000D03*
D19*
X225150000Y-51500000D03*
D18*
X225150000Y-50600000D03*
D20*
X205800000Y-80100000D03*
D21*
X221040000Y-72480000D03*
X208340000Y-80100000D03*
X218500000Y-72480000D03*
X210880000Y-80100000D03*
X215960000Y-72480000D03*
X213420000Y-80100000D03*
X213420000Y-72480000D03*
X215960000Y-80100000D03*
X210880000Y-72480000D03*
X218500000Y-80100000D03*
X208340000Y-72480000D03*
X221040000Y-80100000D03*
X205800000Y-72480000D03*
D22*
X190100000Y-39000000D03*
X190000000Y-111000000D03*
D23*
X154650000Y-98200000D02*
X155278900Y-98200000D01*
X155278900Y-98200000D02*
X156062800Y-98983900D01*
X156062800Y-98983900D02*
X161610700Y-98983900D01*
X161610700Y-98983900D02*
X164311100Y-101684300D01*
X164311100Y-101684300D02*
X164311100Y-102400000D01*
X165440000Y-102400000D02*
X164311100Y-102400000D01*
X222950000Y-98200000D02*
X223578900Y-98200000D01*
X221040000Y-80100000D02*
X221040000Y-81128900D01*
X204113000Y-79441900D02*
X204771100Y-80100000D01*
X189878100Y-79441900D02*
X204113000Y-79441900D01*
X179692500Y-89627500D02*
X189878100Y-79441900D01*
X178600000Y-89627500D02*
X179692500Y-89627500D01*
X178600000Y-90720000D02*
X178600000Y-89627500D01*
X205800000Y-80100000D02*
X204771100Y-80100000D01*
X224557800Y-51921100D02*
X224078900Y-52400000D01*
X225665300Y-51921100D02*
X224557800Y-51921100D01*
X225779000Y-52034800D02*
X225665300Y-51921100D01*
X225779000Y-58002100D02*
X225779000Y-52034800D01*
X225430000Y-58351100D02*
X225779000Y-58002100D01*
X225430000Y-59430000D02*
X225430000Y-58351100D01*
X223450000Y-52400000D02*
X224078900Y-52400000D01*
X155978900Y-55478900D02*
X155978900Y-52400000D01*
X156600000Y-56100000D02*
X155978900Y-55478900D01*
X155350000Y-52400000D02*
X155978900Y-52400000D01*
X207857800Y-79071100D02*
X206828900Y-80100000D01*
X211362200Y-79071100D02*
X207857800Y-79071100D01*
X212391100Y-80100000D02*
X211362200Y-79071100D01*
X213420000Y-80100000D02*
X212391100Y-80100000D01*
X205800000Y-80100000D02*
X206828900Y-80100000D01*
X226217000Y-86305900D02*
X221040000Y-81128900D01*
X226217000Y-98051600D02*
X226217000Y-86305900D01*
X225273400Y-98995200D02*
X226217000Y-98051600D01*
X223942500Y-98995200D02*
X225273400Y-98995200D01*
X223578900Y-98631600D02*
X223942500Y-98995200D01*
X223578900Y-98200000D02*
X223578900Y-98631600D01*
X222950000Y-96400000D02*
X223578900Y-96400000D01*
X210880000Y-80100000D02*
X211908900Y-80100000D01*
X224057900Y-96879000D02*
X223578900Y-96400000D01*
X225149100Y-96879000D02*
X224057900Y-96879000D01*
X225279000Y-96749100D02*
X225149100Y-96879000D01*
X225279000Y-87906800D02*
X225279000Y-96749100D01*
X219429600Y-82057400D02*
X225279000Y-87906800D01*
X213866300Y-82057400D02*
X219429600Y-82057400D01*
X211908900Y-80100000D02*
X213866300Y-82057400D01*
X222950000Y-97300000D02*
X223578900Y-97300000D01*
X225911900Y-87511900D02*
X218500000Y-80100000D01*
X225911900Y-97925100D02*
X225911900Y-87511900D01*
X225146900Y-98690100D02*
X225911900Y-97925100D01*
X224161300Y-98690100D02*
X225146900Y-98690100D01*
X223939600Y-98468400D02*
X224161300Y-98690100D01*
X223939600Y-97660700D02*
X223939600Y-98468400D01*
X223578900Y-97300000D02*
X223939600Y-97660700D01*
X166851100Y-102166100D02*
X166851100Y-102400000D01*
X162885000Y-98200000D02*
X166851100Y-102166100D01*
X156350000Y-98200000D02*
X162885000Y-98200000D01*
X167980000Y-102400000D02*
X166851100Y-102400000D01*
X225150000Y-52400000D02*
X224521100Y-52400000D01*
X157050000Y-52400000D02*
X157678900Y-52400000D01*
X161864900Y-56586000D02*
X157678900Y-52400000D01*
X197013800Y-56586000D02*
X161864900Y-56586000D01*
X200215000Y-59787200D02*
X197013800Y-56586000D01*
X224042200Y-52878900D02*
X224521100Y-52400000D01*
X208668400Y-52878900D02*
X224042200Y-52878900D01*
X202705000Y-58842300D02*
X208668400Y-52878900D01*
X201159900Y-58842300D02*
X202705000Y-58842300D01*
X200215000Y-59787200D02*
X201159900Y-58842300D01*
X205800000Y-67958800D02*
X205800000Y-72480000D01*
X201891200Y-64050000D02*
X205800000Y-67958800D01*
X200948300Y-64050000D02*
X201891200Y-64050000D01*
X200215000Y-63316700D02*
X200948300Y-64050000D01*
X200215000Y-59787200D02*
X200215000Y-63316700D01*
X225606700Y-97243300D02*
X224650000Y-98200000D01*
X225606700Y-87802800D02*
X225606700Y-97243300D01*
X219136500Y-81332600D02*
X225606700Y-87802800D01*
X218270400Y-81332600D02*
X219136500Y-81332600D01*
X217230000Y-80292200D02*
X218270400Y-81332600D01*
X217230000Y-79911900D02*
X217230000Y-80292200D01*
X210827000Y-73508900D02*
X217230000Y-79911900D01*
X207857800Y-73508900D02*
X210827000Y-73508900D01*
X206828900Y-72480000D02*
X207857800Y-73508900D01*
X205800000Y-72480000D02*
X206828900Y-72480000D01*
X223642200Y-96921100D02*
X224021100Y-97300000D01*
X220936700Y-96921100D02*
X223642200Y-96921100D01*
X218728700Y-94713100D02*
X220936700Y-96921100D01*
X181567800Y-94713100D02*
X218728700Y-94713100D01*
X179359800Y-96921100D02*
X181567800Y-94713100D01*
X155657800Y-96921100D02*
X179359800Y-96921100D01*
X155278900Y-97300000D02*
X155657800Y-96921100D01*
X154650000Y-97300000D02*
X155278900Y-97300000D01*
X224650000Y-97300000D02*
X224021100Y-97300000D01*
X222029000Y-94407900D02*
X224021100Y-96400000D01*
X180035900Y-94407900D02*
X222029000Y-94407900D01*
X178522700Y-95921100D02*
X180035900Y-94407900D01*
X155757800Y-95921100D02*
X178522700Y-95921100D01*
X155278900Y-96400000D02*
X155757800Y-95921100D01*
X154650000Y-96400000D02*
X155278900Y-96400000D01*
X224650000Y-96400000D02*
X224021100Y-96400000D01*
X155350000Y-51500000D02*
X154721100Y-51500000D01*
X164537300Y-97300000D02*
X156350000Y-97300000D01*
X169139800Y-101902500D02*
X164537300Y-97300000D01*
X169139800Y-102883000D02*
X169139800Y-101902500D01*
X168483000Y-103539800D02*
X169139800Y-102883000D01*
X158954100Y-103539800D02*
X168483000Y-103539800D01*
X153706600Y-98292300D02*
X158954100Y-103539800D01*
X153706600Y-95938100D02*
X153706600Y-98292300D01*
X154364600Y-95280100D02*
X153706600Y-95938100D01*
X170608400Y-95280100D02*
X154364600Y-95280100D01*
X172740000Y-93148500D02*
X170608400Y-95280100D01*
X172740000Y-79835900D02*
X172740000Y-93148500D01*
X172440500Y-79536400D02*
X172740000Y-79835900D01*
X171747500Y-79536400D02*
X172440500Y-79536400D01*
X154589500Y-62378400D02*
X171747500Y-79536400D01*
X154589500Y-51631600D02*
X154589500Y-62378400D01*
X154721100Y-51500000D02*
X154589500Y-51631600D01*
X155242200Y-96878900D02*
X155721100Y-96400000D01*
X154155200Y-96878900D02*
X155242200Y-96878900D01*
X154021100Y-96744800D02*
X154155200Y-96878900D01*
X154021100Y-96055200D02*
X154021100Y-96744800D01*
X154491100Y-95585200D02*
X154021100Y-96055200D01*
X170746700Y-95585200D02*
X154491100Y-95585200D01*
X173056700Y-93275200D02*
X170746700Y-95585200D01*
X173056700Y-79669400D02*
X173056700Y-93275200D01*
X172466200Y-79078900D02*
X173056700Y-79669400D01*
X171721600Y-79078900D02*
X172466200Y-79078900D01*
X159845500Y-67202800D02*
X171721600Y-79078900D01*
X159845500Y-56528900D02*
X159845500Y-67202800D01*
X156284100Y-52967500D02*
X159845500Y-56528900D01*
X156284100Y-50905200D02*
X156284100Y-52967500D01*
X155978900Y-50600000D02*
X156284100Y-50905200D01*
X155350000Y-50600000D02*
X155978900Y-50600000D01*
X156350000Y-96400000D02*
X155721100Y-96400000D01*
X206934700Y-51500000D02*
X223450000Y-51500000D01*
X202842600Y-55592100D02*
X206934700Y-51500000D01*
X172564500Y-55592100D02*
X202842600Y-55592100D01*
X168472400Y-51500000D02*
X172564500Y-55592100D01*
X157050000Y-51500000D02*
X168472400Y-51500000D01*
X168333100Y-50600000D02*
X157050000Y-50600000D01*
X173020000Y-55286900D02*
X168333100Y-50600000D01*
X198966900Y-55286900D02*
X173020000Y-55286900D01*
X203653800Y-50600000D02*
X198966900Y-55286900D01*
X223450000Y-50600000D02*
X203653800Y-50600000D01*
X210311100Y-75480000D02*
X201460000Y-75480000D01*
X214931100Y-80100000D02*
X210311100Y-75480000D01*
X215960000Y-80100000D02*
X214931100Y-80100000D01*
X203273900Y-81129000D02*
X202704900Y-80560000D01*
X206796500Y-81129000D02*
X203273900Y-81129000D01*
X207311100Y-80614400D02*
X206796500Y-81129000D01*
X207311100Y-80100000D02*
X207311100Y-80614400D01*
X208340000Y-80100000D02*
X207311100Y-80100000D01*
X201460000Y-80560000D02*
X202704900Y-80560000D01*
X202768600Y-60240000D02*
X201460000Y-60240000D01*
X208246400Y-54762200D02*
X202768600Y-60240000D01*
X219677600Y-54762200D02*
X208246400Y-54762200D01*
X224351100Y-59435700D02*
X219677600Y-54762200D01*
X224351100Y-59947200D02*
X224351100Y-59435700D01*
X225295000Y-60891100D02*
X224351100Y-59947200D01*
X225430000Y-60891100D02*
X225295000Y-60891100D01*
X225430000Y-61970000D02*
X225430000Y-60891100D01*
D24*
G36*
X230816100Y-80287336D02*
X230816100Y-94719864D01*
X221217364Y-104318600D01*
X207784836Y-104318600D01*
X201949986Y-98483750D01*
X221915000Y-98483750D01*
X221915000Y-98576310D01*
X222011673Y-98809699D01*
X222190302Y-98988327D01*
X222423691Y-99085000D01*
X222664250Y-99085000D01*
X222823000Y-98926250D01*
X222823000Y-98325000D01*
X222073750Y-98325000D01*
X221915000Y-98483750D01*
X201949986Y-98483750D01*
X198890536Y-95424300D01*
X218434112Y-95424300D01*
X220433806Y-97423995D01*
X220664536Y-97578163D01*
X220936700Y-97632300D01*
X221936862Y-97632300D01*
X221946838Y-97685317D01*
X221962338Y-97709405D01*
X221915000Y-97823690D01*
X221915000Y-97916250D01*
X222073750Y-98075000D01*
X222439188Y-98075000D01*
X222550000Y-98097440D01*
X223097000Y-98097440D01*
X223097000Y-98325000D01*
X223077000Y-98325000D01*
X223077000Y-98926250D01*
X223235750Y-99085000D01*
X223476309Y-99085000D01*
X223528708Y-99063296D01*
X223658406Y-99192994D01*
X223889135Y-99347163D01*
X223934290Y-99356145D01*
X224161300Y-99401300D01*
X225146900Y-99401300D01*
X225419065Y-99347163D01*
X225649794Y-99192994D01*
X226414794Y-98427995D01*
X226568962Y-98197265D01*
X226568963Y-98197264D01*
X226623100Y-97925100D01*
X226623100Y-87511900D01*
X226568963Y-87239736D01*
X226501386Y-87138600D01*
X226414795Y-87009006D01*
X220824387Y-81418599D01*
X220913000Y-81369915D01*
X220913000Y-80227000D01*
X221167000Y-80227000D01*
X221167000Y-81369915D01*
X221389039Y-81491904D01*
X221777423Y-81331041D01*
X222192389Y-80955134D01*
X222431914Y-80449041D01*
X222310629Y-80227000D01*
X221167000Y-80227000D01*
X220913000Y-80227000D01*
X220893000Y-80227000D01*
X220893000Y-79973000D01*
X220913000Y-79973000D01*
X220913000Y-78830085D01*
X221167000Y-78830085D01*
X221167000Y-79973000D01*
X222310629Y-79973000D01*
X222431914Y-79750959D01*
X222192389Y-79244866D01*
X221777423Y-78868959D01*
X221389039Y-78708096D01*
X221167000Y-78830085D01*
X220913000Y-78830085D01*
X220690961Y-78708096D01*
X220302577Y-78868959D01*
X219887611Y-79244866D01*
X219784986Y-79461703D01*
X219514698Y-79057189D01*
X219049151Y-78746120D01*
X218500000Y-78636887D01*
X217950849Y-78746120D01*
X217485302Y-79057189D01*
X217443556Y-79119667D01*
X211865925Y-73542037D01*
X211894698Y-73522811D01*
X212150000Y-73140725D01*
X212405302Y-73522811D01*
X212870849Y-73833880D01*
X213420000Y-73943113D01*
X213969151Y-73833880D01*
X214434698Y-73522811D01*
X214690000Y-73140725D01*
X214945302Y-73522811D01*
X215410849Y-73833880D01*
X215960000Y-73943113D01*
X216509151Y-73833880D01*
X216974698Y-73522811D01*
X217230000Y-73140725D01*
X217485302Y-73522811D01*
X217950849Y-73833880D01*
X218500000Y-73943113D01*
X219049151Y-73833880D01*
X219514698Y-73522811D01*
X219770000Y-73140725D01*
X220025302Y-73522811D01*
X220490849Y-73833880D01*
X221040000Y-73943113D01*
X221589151Y-73833880D01*
X222054698Y-73522811D01*
X222365767Y-73057264D01*
X222475000Y-72508113D01*
X222475000Y-72451887D01*
X222365767Y-71902736D01*
X222233402Y-71704638D01*
X230816100Y-80287336D01*
X230816100Y-80287336D01*
G37*
X230816100Y-80287336D02*
X230816100Y-94719864D01*
X221217364Y-104318600D01*
X207784836Y-104318600D01*
X201949986Y-98483750D01*
X221915000Y-98483750D01*
X221915000Y-98576310D01*
X222011673Y-98809699D01*
X222190302Y-98988327D01*
X222423691Y-99085000D01*
X222664250Y-99085000D01*
X222823000Y-98926250D01*
X222823000Y-98325000D01*
X222073750Y-98325000D01*
X221915000Y-98483750D01*
X201949986Y-98483750D01*
X198890536Y-95424300D01*
X218434112Y-95424300D01*
X220433806Y-97423995D01*
X220664536Y-97578163D01*
X220936700Y-97632300D01*
X221936862Y-97632300D01*
X221946838Y-97685317D01*
X221962338Y-97709405D01*
X221915000Y-97823690D01*
X221915000Y-97916250D01*
X222073750Y-98075000D01*
X222439188Y-98075000D01*
X222550000Y-98097440D01*
X223097000Y-98097440D01*
X223097000Y-98325000D01*
X223077000Y-98325000D01*
X223077000Y-98926250D01*
X223235750Y-99085000D01*
X223476309Y-99085000D01*
X223528708Y-99063296D01*
X223658406Y-99192994D01*
X223889135Y-99347163D01*
X223934290Y-99356145D01*
X224161300Y-99401300D01*
X225146900Y-99401300D01*
X225419065Y-99347163D01*
X225649794Y-99192994D01*
X226414794Y-98427995D01*
X226568962Y-98197265D01*
X226568963Y-98197264D01*
X226623100Y-97925100D01*
X226623100Y-87511900D01*
X226568963Y-87239736D01*
X226501386Y-87138600D01*
X226414795Y-87009006D01*
X220824387Y-81418599D01*
X220913000Y-81369915D01*
X220913000Y-80227000D01*
X221167000Y-80227000D01*
X221167000Y-81369915D01*
X221389039Y-81491904D01*
X221777423Y-81331041D01*
X222192389Y-80955134D01*
X222431914Y-80449041D01*
X222310629Y-80227000D01*
X221167000Y-80227000D01*
X220913000Y-80227000D01*
X220893000Y-80227000D01*
X220893000Y-79973000D01*
X220913000Y-79973000D01*
X220913000Y-78830085D01*
X221167000Y-78830085D01*
X221167000Y-79973000D01*
X222310629Y-79973000D01*
X222431914Y-79750959D01*
X222192389Y-79244866D01*
X221777423Y-78868959D01*
X221389039Y-78708096D01*
X221167000Y-78830085D01*
X220913000Y-78830085D01*
X220690961Y-78708096D01*
X220302577Y-78868959D01*
X219887611Y-79244866D01*
X219784986Y-79461703D01*
X219514698Y-79057189D01*
X219049151Y-78746120D01*
X218500000Y-78636887D01*
X217950849Y-78746120D01*
X217485302Y-79057189D01*
X217443556Y-79119667D01*
X211865925Y-73542037D01*
X211894698Y-73522811D01*
X212150000Y-73140725D01*
X212405302Y-73522811D01*
X212870849Y-73833880D01*
X213420000Y-73943113D01*
X213969151Y-73833880D01*
X214434698Y-73522811D01*
X214690000Y-73140725D01*
X214945302Y-73522811D01*
X215410849Y-73833880D01*
X215960000Y-73943113D01*
X216509151Y-73833880D01*
X216974698Y-73522811D01*
X217230000Y-73140725D01*
X217485302Y-73522811D01*
X217950849Y-73833880D01*
X218500000Y-73943113D01*
X219049151Y-73833880D01*
X219514698Y-73522811D01*
X219770000Y-73140725D01*
X220025302Y-73522811D01*
X220490849Y-73833880D01*
X221040000Y-73943113D01*
X221589151Y-73833880D01*
X222054698Y-73522811D01*
X222365767Y-73057264D01*
X222475000Y-72508113D01*
X222475000Y-72451887D01*
X222365767Y-71902736D01*
X222233402Y-71704638D01*
X230816100Y-80287336D01*
G36*
X155698110Y-99046431D02*
X155950000Y-99097440D01*
X156750000Y-99097440D01*
X156985317Y-99053162D01*
X157201441Y-98914090D01*
X157203416Y-98911200D01*
X162590412Y-98911200D01*
X164743048Y-101063837D01*
X164532424Y-101162034D01*
X164409156Y-101296538D01*
X164403162Y-101264683D01*
X164264090Y-101048559D01*
X164051890Y-100903569D01*
X163800000Y-100852560D01*
X162000000Y-100852560D01*
X161764683Y-100896838D01*
X161548559Y-101035910D01*
X161403569Y-101248110D01*
X161352560Y-101500000D01*
X161352560Y-102828600D01*
X159248689Y-102828600D01*
X155408791Y-98988703D01*
X155409698Y-98988327D01*
X155492252Y-98905774D01*
X155698110Y-99046431D01*
X155698110Y-99046431D01*
G37*
X155698110Y-99046431D02*
X155950000Y-99097440D01*
X156750000Y-99097440D01*
X156985317Y-99053162D01*
X157201441Y-98914090D01*
X157203416Y-98911200D01*
X162590412Y-98911200D01*
X164743048Y-101063837D01*
X164532424Y-101162034D01*
X164409156Y-101296538D01*
X164403162Y-101264683D01*
X164264090Y-101048559D01*
X164051890Y-100903569D01*
X163800000Y-100852560D01*
X162000000Y-100852560D01*
X161764683Y-100896838D01*
X161548559Y-101035910D01*
X161403569Y-101248110D01*
X161352560Y-101500000D01*
X161352560Y-102828600D01*
X159248689Y-102828600D01*
X155408791Y-98988703D01*
X155409698Y-98988327D01*
X155492252Y-98905774D01*
X155698110Y-99046431D01*
G36*
X165567000Y-102273000D02*
X165587000Y-102273000D01*
X165587000Y-102527000D01*
X165567000Y-102527000D01*
X165567000Y-102547000D01*
X165313000Y-102547000D01*
X165313000Y-102527000D01*
X165293000Y-102527000D01*
X165293000Y-102273000D01*
X165313000Y-102273000D01*
X165313000Y-102253000D01*
X165567000Y-102253000D01*
X165567000Y-102273000D01*
X165567000Y-102273000D01*
G37*
X165567000Y-102273000D02*
X165587000Y-102273000D01*
X165587000Y-102527000D01*
X165567000Y-102527000D01*
X165567000Y-102547000D01*
X165313000Y-102547000D01*
X165313000Y-102527000D01*
X165293000Y-102527000D01*
X165293000Y-102273000D01*
X165313000Y-102273000D01*
X165313000Y-102253000D01*
X165567000Y-102253000D01*
X165567000Y-102273000D01*
G36*
X154797000Y-98325000D02*
X154777000Y-98325000D01*
X154777000Y-98347000D01*
X154767088Y-98347000D01*
X154517528Y-98097440D01*
X154797000Y-98097440D01*
X154797000Y-98325000D01*
X154797000Y-98325000D01*
G37*
X154797000Y-98325000D02*
X154777000Y-98325000D01*
X154777000Y-98347000D01*
X154767088Y-98347000D01*
X154517528Y-98097440D01*
X154797000Y-98097440D01*
X154797000Y-98325000D01*
G36*
X176916655Y-57700000D02*
X177030729Y-58273489D01*
X177355585Y-58759670D01*
X177670366Y-58970000D01*
X177355585Y-59180330D01*
X177030729Y-59666511D01*
X176916655Y-60240000D01*
X177030729Y-60813489D01*
X177355585Y-61299670D01*
X177670366Y-61510000D01*
X177355585Y-61720330D01*
X177030729Y-62206511D01*
X176916655Y-62780000D01*
X177030729Y-63353489D01*
X177355585Y-63839670D01*
X177670366Y-64050000D01*
X177355585Y-64260330D01*
X177030729Y-64746511D01*
X176916655Y-65320000D01*
X177030729Y-65893489D01*
X177355585Y-66379670D01*
X177670366Y-66590000D01*
X177355585Y-66800330D01*
X177030729Y-67286511D01*
X176916655Y-67860000D01*
X177030729Y-68433489D01*
X177355585Y-68919670D01*
X177670366Y-69130000D01*
X177355585Y-69340330D01*
X177030729Y-69826511D01*
X176916655Y-70400000D01*
X177030729Y-70973489D01*
X177355585Y-71459670D01*
X177670366Y-71670000D01*
X177355585Y-71880330D01*
X177030729Y-72366511D01*
X176916655Y-72940000D01*
X177030729Y-73513489D01*
X177355585Y-73999670D01*
X177670366Y-74210000D01*
X177355585Y-74420330D01*
X177030729Y-74906511D01*
X176916655Y-75480000D01*
X177030729Y-76053489D01*
X177355585Y-76539670D01*
X177670366Y-76750000D01*
X177355585Y-76960330D01*
X177030729Y-77446511D01*
X176916655Y-78020000D01*
X177030729Y-78593489D01*
X177355585Y-79079670D01*
X177670366Y-79290000D01*
X177355585Y-79500330D01*
X177030729Y-79986511D01*
X176916655Y-80560000D01*
X177030729Y-81133489D01*
X177355585Y-81619670D01*
X177670366Y-81830000D01*
X177355585Y-82040330D01*
X177030729Y-82526511D01*
X176916655Y-83100000D01*
X177030729Y-83673489D01*
X177355585Y-84159670D01*
X177670366Y-84370000D01*
X177355585Y-84580330D01*
X177030729Y-85066511D01*
X176916655Y-85640000D01*
X177030729Y-86213489D01*
X177355585Y-86699670D01*
X177670366Y-86910000D01*
X177355585Y-87120330D01*
X177030729Y-87606511D01*
X176916655Y-88180000D01*
X177030729Y-88753489D01*
X177355585Y-89239670D01*
X177665069Y-89446461D01*
X177249268Y-89817964D01*
X176995291Y-90345209D01*
X176992642Y-90360974D01*
X177113783Y-90593000D01*
X178473000Y-90593000D01*
X178473000Y-90573000D01*
X178727000Y-90573000D01*
X178727000Y-90593000D01*
X180086217Y-90593000D01*
X180207358Y-90360974D01*
X180204709Y-90345209D01*
X179950732Y-89817964D01*
X179534931Y-89446461D01*
X179844415Y-89239670D01*
X180169271Y-88753489D01*
X180283345Y-88180000D01*
X180169271Y-87606511D01*
X179844415Y-87120330D01*
X179529634Y-86910000D01*
X179844415Y-86699670D01*
X180169271Y-86213489D01*
X180283345Y-85640000D01*
X180169271Y-85066511D01*
X179844415Y-84580330D01*
X179529634Y-84370000D01*
X179844415Y-84159670D01*
X180169271Y-83673489D01*
X180283345Y-83100000D01*
X180169271Y-82526511D01*
X179844415Y-82040330D01*
X179529634Y-81830000D01*
X179844415Y-81619670D01*
X180169271Y-81133489D01*
X180283345Y-80560000D01*
X180169271Y-79986511D01*
X179844415Y-79500330D01*
X179529634Y-79290000D01*
X179844415Y-79079670D01*
X180169271Y-78593489D01*
X180283345Y-78020000D01*
X180169271Y-77446511D01*
X179844415Y-76960330D01*
X179529634Y-76750000D01*
X179844415Y-76539670D01*
X180169271Y-76053489D01*
X180283345Y-75480000D01*
X180176147Y-74941074D01*
X191143494Y-74941074D01*
X191587253Y-76015052D01*
X192408226Y-76837460D01*
X193481428Y-77283092D01*
X194643474Y-77284106D01*
X195717452Y-76840347D01*
X196539860Y-76019374D01*
X196985492Y-74946172D01*
X196986506Y-73784126D01*
X196542747Y-72710148D01*
X195721774Y-71887740D01*
X194648572Y-71442108D01*
X193486526Y-71441094D01*
X192412548Y-71884853D01*
X191590140Y-72705826D01*
X191144508Y-73779028D01*
X191143494Y-74941074D01*
X180176147Y-74941074D01*
X180169271Y-74906511D01*
X179844415Y-74420330D01*
X179529634Y-74210000D01*
X179844415Y-73999670D01*
X180169271Y-73513489D01*
X180283345Y-72940000D01*
X180169271Y-72366511D01*
X179844415Y-71880330D01*
X179529634Y-71670000D01*
X179844415Y-71459670D01*
X180169271Y-70973489D01*
X180283345Y-70400000D01*
X180169271Y-69826511D01*
X179844415Y-69340330D01*
X179529634Y-69130000D01*
X179844415Y-68919670D01*
X180169271Y-68433489D01*
X180283345Y-67860000D01*
X180169271Y-67286511D01*
X179844415Y-66800330D01*
X179529634Y-66590000D01*
X179844415Y-66379670D01*
X180169271Y-65893489D01*
X180283345Y-65320000D01*
X180169271Y-64746511D01*
X179844415Y-64260330D01*
X179529634Y-64050000D01*
X179844415Y-63839670D01*
X180169271Y-63353489D01*
X180283345Y-62780000D01*
X180169271Y-62206511D01*
X179844415Y-61720330D01*
X179529634Y-61510000D01*
X179844415Y-61299670D01*
X180169271Y-60813489D01*
X180283345Y-60240000D01*
X180169271Y-59666511D01*
X179844415Y-59180330D01*
X179529634Y-58970000D01*
X179844415Y-58759670D01*
X180169271Y-58273489D01*
X180283345Y-57700000D01*
X180203223Y-57297200D01*
X196719212Y-57297200D01*
X199503800Y-60081789D01*
X199503800Y-63316700D01*
X199557937Y-63588865D01*
X199712106Y-63819594D01*
X200190454Y-64297942D01*
X199890729Y-64746511D01*
X199776655Y-65320000D01*
X199890729Y-65893489D01*
X200215585Y-66379670D01*
X200530366Y-66590000D01*
X200215585Y-66800330D01*
X199890729Y-67286511D01*
X199776655Y-67860000D01*
X199890729Y-68433489D01*
X200215585Y-68919670D01*
X200530366Y-69130000D01*
X200215585Y-69340330D01*
X199890729Y-69826511D01*
X199776655Y-70400000D01*
X199890729Y-70973489D01*
X200215585Y-71459670D01*
X200530366Y-71670000D01*
X200215585Y-71880330D01*
X199890729Y-72366511D01*
X199776655Y-72940000D01*
X199890729Y-73513489D01*
X200215585Y-73999670D01*
X200530366Y-74210000D01*
X200215585Y-74420330D01*
X199890729Y-74906511D01*
X199776655Y-75480000D01*
X199890729Y-76053489D01*
X200215585Y-76539670D01*
X200530366Y-76750000D01*
X200215585Y-76960330D01*
X199890729Y-77446511D01*
X199776655Y-78020000D01*
X199890729Y-78593489D01*
X200215585Y-79079670D01*
X200530366Y-79290000D01*
X200215585Y-79500330D01*
X199890729Y-79986511D01*
X199776655Y-80560000D01*
X199890729Y-81133489D01*
X200215585Y-81619670D01*
X200530366Y-81830000D01*
X200215585Y-82040330D01*
X199890729Y-82526511D01*
X199776655Y-83100000D01*
X199890729Y-83673489D01*
X200215585Y-84159670D01*
X200530366Y-84370000D01*
X200215585Y-84580330D01*
X199890729Y-85066511D01*
X199776655Y-85640000D01*
X199890729Y-86213489D01*
X200215585Y-86699670D01*
X200530366Y-86910000D01*
X200215585Y-87120330D01*
X199890729Y-87606511D01*
X199776655Y-88180000D01*
X199890729Y-88753489D01*
X200215585Y-89239670D01*
X200530366Y-89450000D01*
X200215585Y-89660330D01*
X199890729Y-90146511D01*
X199776655Y-90720000D01*
X199890729Y-91293489D01*
X200215585Y-91779670D01*
X200530366Y-91990000D01*
X200215585Y-92200330D01*
X199890729Y-92686511D01*
X199776655Y-93260000D01*
X199863520Y-93696700D01*
X180196480Y-93696700D01*
X180283345Y-93260000D01*
X180169271Y-92686511D01*
X179844415Y-92200330D01*
X179534931Y-91993539D01*
X179950732Y-91622036D01*
X180204709Y-91094791D01*
X180207358Y-91079026D01*
X180086217Y-90847000D01*
X178727000Y-90847000D01*
X178727000Y-90867000D01*
X178473000Y-90867000D01*
X178473000Y-90847000D01*
X177113783Y-90847000D01*
X176992642Y-91079026D01*
X176995291Y-91094791D01*
X177249268Y-91622036D01*
X177665069Y-91993539D01*
X177355585Y-92200330D01*
X177030729Y-92686511D01*
X176916655Y-93260000D01*
X177030729Y-93833489D01*
X177355585Y-94319670D01*
X177841766Y-94644526D01*
X178415255Y-94758600D01*
X178679412Y-94758600D01*
X178228112Y-95209900D01*
X172127788Y-95209900D01*
X173559594Y-93778095D01*
X173713762Y-93547365D01*
X173713763Y-93547364D01*
X173767900Y-93275200D01*
X173767900Y-79669400D01*
X173713763Y-79397236D01*
X173713763Y-79397235D01*
X173559594Y-79166506D01*
X172969094Y-78576006D01*
X172738365Y-78421837D01*
X172466200Y-78367700D01*
X172016189Y-78367700D01*
X170700910Y-77052421D01*
X171256428Y-77283092D01*
X172418474Y-77284106D01*
X173492452Y-76840347D01*
X174314860Y-76019374D01*
X174760492Y-74946172D01*
X174761506Y-73784126D01*
X174317747Y-72710148D01*
X173496774Y-71887740D01*
X172423572Y-71442108D01*
X171261526Y-71441094D01*
X170187548Y-71884853D01*
X169365140Y-72705826D01*
X168919508Y-73779028D01*
X168918494Y-74941074D01*
X169150106Y-75501617D01*
X161837088Y-68188600D01*
X170501100Y-68188600D01*
X170763238Y-68136457D01*
X170985468Y-67987968D01*
X171133957Y-67765738D01*
X171186100Y-67503600D01*
X171186100Y-57503600D01*
X171145044Y-57297200D01*
X176996777Y-57297200D01*
X176916655Y-57700000D01*
X176916655Y-57700000D01*
G37*
X176916655Y-57700000D02*
X177030729Y-58273489D01*
X177355585Y-58759670D01*
X177670366Y-58970000D01*
X177355585Y-59180330D01*
X177030729Y-59666511D01*
X176916655Y-60240000D01*
X177030729Y-60813489D01*
X177355585Y-61299670D01*
X177670366Y-61510000D01*
X177355585Y-61720330D01*
X177030729Y-62206511D01*
X176916655Y-62780000D01*
X177030729Y-63353489D01*
X177355585Y-63839670D01*
X177670366Y-64050000D01*
X177355585Y-64260330D01*
X177030729Y-64746511D01*
X176916655Y-65320000D01*
X177030729Y-65893489D01*
X177355585Y-66379670D01*
X177670366Y-66590000D01*
X177355585Y-66800330D01*
X177030729Y-67286511D01*
X176916655Y-67860000D01*
X177030729Y-68433489D01*
X177355585Y-68919670D01*
X177670366Y-69130000D01*
X177355585Y-69340330D01*
X177030729Y-69826511D01*
X176916655Y-70400000D01*
X177030729Y-70973489D01*
X177355585Y-71459670D01*
X177670366Y-71670000D01*
X177355585Y-71880330D01*
X177030729Y-72366511D01*
X176916655Y-72940000D01*
X177030729Y-73513489D01*
X177355585Y-73999670D01*
X177670366Y-74210000D01*
X177355585Y-74420330D01*
X177030729Y-74906511D01*
X176916655Y-75480000D01*
X177030729Y-76053489D01*
X177355585Y-76539670D01*
X177670366Y-76750000D01*
X177355585Y-76960330D01*
X177030729Y-77446511D01*
X176916655Y-78020000D01*
X177030729Y-78593489D01*
X177355585Y-79079670D01*
X177670366Y-79290000D01*
X177355585Y-79500330D01*
X177030729Y-79986511D01*
X176916655Y-80560000D01*
X177030729Y-81133489D01*
X177355585Y-81619670D01*
X177670366Y-81830000D01*
X177355585Y-82040330D01*
X177030729Y-82526511D01*
X176916655Y-83100000D01*
X177030729Y-83673489D01*
X177355585Y-84159670D01*
X177670366Y-84370000D01*
X177355585Y-84580330D01*
X177030729Y-85066511D01*
X176916655Y-85640000D01*
X177030729Y-86213489D01*
X177355585Y-86699670D01*
X177670366Y-86910000D01*
X177355585Y-87120330D01*
X177030729Y-87606511D01*
X176916655Y-88180000D01*
X177030729Y-88753489D01*
X177355585Y-89239670D01*
X177665069Y-89446461D01*
X177249268Y-89817964D01*
X176995291Y-90345209D01*
X176992642Y-90360974D01*
X177113783Y-90593000D01*
X178473000Y-90593000D01*
X178473000Y-90573000D01*
X178727000Y-90573000D01*
X178727000Y-90593000D01*
X180086217Y-90593000D01*
X180207358Y-90360974D01*
X180204709Y-90345209D01*
X179950732Y-89817964D01*
X179534931Y-89446461D01*
X179844415Y-89239670D01*
X180169271Y-88753489D01*
X180283345Y-88180000D01*
X180169271Y-87606511D01*
X179844415Y-87120330D01*
X179529634Y-86910000D01*
X179844415Y-86699670D01*
X180169271Y-86213489D01*
X180283345Y-85640000D01*
X180169271Y-85066511D01*
X179844415Y-84580330D01*
X179529634Y-84370000D01*
X179844415Y-84159670D01*
X180169271Y-83673489D01*
X180283345Y-83100000D01*
X180169271Y-82526511D01*
X179844415Y-82040330D01*
X179529634Y-81830000D01*
X179844415Y-81619670D01*
X180169271Y-81133489D01*
X180283345Y-80560000D01*
X180169271Y-79986511D01*
X179844415Y-79500330D01*
X179529634Y-79290000D01*
X179844415Y-79079670D01*
X180169271Y-78593489D01*
X180283345Y-78020000D01*
X180169271Y-77446511D01*
X179844415Y-76960330D01*
X179529634Y-76750000D01*
X179844415Y-76539670D01*
X180169271Y-76053489D01*
X180283345Y-75480000D01*
X180176147Y-74941074D01*
X191143494Y-74941074D01*
X191587253Y-76015052D01*
X192408226Y-76837460D01*
X193481428Y-77283092D01*
X194643474Y-77284106D01*
X195717452Y-76840347D01*
X196539860Y-76019374D01*
X196985492Y-74946172D01*
X196986506Y-73784126D01*
X196542747Y-72710148D01*
X195721774Y-71887740D01*
X194648572Y-71442108D01*
X193486526Y-71441094D01*
X192412548Y-71884853D01*
X191590140Y-72705826D01*
X191144508Y-73779028D01*
X191143494Y-74941074D01*
X180176147Y-74941074D01*
X180169271Y-74906511D01*
X179844415Y-74420330D01*
X179529634Y-74210000D01*
X179844415Y-73999670D01*
X180169271Y-73513489D01*
X180283345Y-72940000D01*
X180169271Y-72366511D01*
X179844415Y-71880330D01*
X179529634Y-71670000D01*
X179844415Y-71459670D01*
X180169271Y-70973489D01*
X180283345Y-70400000D01*
X180169271Y-69826511D01*
X179844415Y-69340330D01*
X179529634Y-69130000D01*
X179844415Y-68919670D01*
X180169271Y-68433489D01*
X180283345Y-67860000D01*
X180169271Y-67286511D01*
X179844415Y-66800330D01*
X179529634Y-66590000D01*
X179844415Y-66379670D01*
X180169271Y-65893489D01*
X180283345Y-65320000D01*
X180169271Y-64746511D01*
X179844415Y-64260330D01*
X179529634Y-64050000D01*
X179844415Y-63839670D01*
X180169271Y-63353489D01*
X180283345Y-62780000D01*
X180169271Y-62206511D01*
X179844415Y-61720330D01*
X179529634Y-61510000D01*
X179844415Y-61299670D01*
X180169271Y-60813489D01*
X180283345Y-60240000D01*
X180169271Y-59666511D01*
X179844415Y-59180330D01*
X179529634Y-58970000D01*
X179844415Y-58759670D01*
X180169271Y-58273489D01*
X180283345Y-57700000D01*
X180203223Y-57297200D01*
X196719212Y-57297200D01*
X199503800Y-60081789D01*
X199503800Y-63316700D01*
X199557937Y-63588865D01*
X199712106Y-63819594D01*
X200190454Y-64297942D01*
X199890729Y-64746511D01*
X199776655Y-65320000D01*
X199890729Y-65893489D01*
X200215585Y-66379670D01*
X200530366Y-66590000D01*
X200215585Y-66800330D01*
X199890729Y-67286511D01*
X199776655Y-67860000D01*
X199890729Y-68433489D01*
X200215585Y-68919670D01*
X200530366Y-69130000D01*
X200215585Y-69340330D01*
X199890729Y-69826511D01*
X199776655Y-70400000D01*
X199890729Y-70973489D01*
X200215585Y-71459670D01*
X200530366Y-71670000D01*
X200215585Y-71880330D01*
X199890729Y-72366511D01*
X199776655Y-72940000D01*
X199890729Y-73513489D01*
X200215585Y-73999670D01*
X200530366Y-74210000D01*
X200215585Y-74420330D01*
X199890729Y-74906511D01*
X199776655Y-75480000D01*
X199890729Y-76053489D01*
X200215585Y-76539670D01*
X200530366Y-76750000D01*
X200215585Y-76960330D01*
X199890729Y-77446511D01*
X199776655Y-78020000D01*
X199890729Y-78593489D01*
X200215585Y-79079670D01*
X200530366Y-79290000D01*
X200215585Y-79500330D01*
X199890729Y-79986511D01*
X199776655Y-80560000D01*
X199890729Y-81133489D01*
X200215585Y-81619670D01*
X200530366Y-81830000D01*
X200215585Y-82040330D01*
X199890729Y-82526511D01*
X199776655Y-83100000D01*
X199890729Y-83673489D01*
X200215585Y-84159670D01*
X200530366Y-84370000D01*
X200215585Y-84580330D01*
X199890729Y-85066511D01*
X199776655Y-85640000D01*
X199890729Y-86213489D01*
X200215585Y-86699670D01*
X200530366Y-86910000D01*
X200215585Y-87120330D01*
X199890729Y-87606511D01*
X199776655Y-88180000D01*
X199890729Y-88753489D01*
X200215585Y-89239670D01*
X200530366Y-89450000D01*
X200215585Y-89660330D01*
X199890729Y-90146511D01*
X199776655Y-90720000D01*
X199890729Y-91293489D01*
X200215585Y-91779670D01*
X200530366Y-91990000D01*
X200215585Y-92200330D01*
X199890729Y-92686511D01*
X199776655Y-93260000D01*
X199863520Y-93696700D01*
X180196480Y-93696700D01*
X180283345Y-93260000D01*
X180169271Y-92686511D01*
X179844415Y-92200330D01*
X179534931Y-91993539D01*
X179950732Y-91622036D01*
X180204709Y-91094791D01*
X180207358Y-91079026D01*
X180086217Y-90847000D01*
X178727000Y-90847000D01*
X178727000Y-90867000D01*
X178473000Y-90867000D01*
X178473000Y-90847000D01*
X177113783Y-90847000D01*
X176992642Y-91079026D01*
X176995291Y-91094791D01*
X177249268Y-91622036D01*
X177665069Y-91993539D01*
X177355585Y-92200330D01*
X177030729Y-92686511D01*
X176916655Y-93260000D01*
X177030729Y-93833489D01*
X177355585Y-94319670D01*
X177841766Y-94644526D01*
X178415255Y-94758600D01*
X178679412Y-94758600D01*
X178228112Y-95209900D01*
X172127788Y-95209900D01*
X173559594Y-93778095D01*
X173713762Y-93547365D01*
X173713763Y-93547364D01*
X173767900Y-93275200D01*
X173767900Y-79669400D01*
X173713763Y-79397236D01*
X173713763Y-79397235D01*
X173559594Y-79166506D01*
X172969094Y-78576006D01*
X172738365Y-78421837D01*
X172466200Y-78367700D01*
X172016189Y-78367700D01*
X170700910Y-77052421D01*
X171256428Y-77283092D01*
X172418474Y-77284106D01*
X173492452Y-76840347D01*
X174314860Y-76019374D01*
X174760492Y-74946172D01*
X174761506Y-73784126D01*
X174317747Y-72710148D01*
X173496774Y-71887740D01*
X172423572Y-71442108D01*
X171261526Y-71441094D01*
X170187548Y-71884853D01*
X169365140Y-72705826D01*
X168919508Y-73779028D01*
X168918494Y-74941074D01*
X169150106Y-75501617D01*
X161837088Y-68188600D01*
X170501100Y-68188600D01*
X170763238Y-68136457D01*
X170985468Y-67987968D01*
X171133957Y-67765738D01*
X171186100Y-67503600D01*
X171186100Y-57503600D01*
X171145044Y-57297200D01*
X176996777Y-57297200D01*
X176916655Y-57700000D01*
G36*
X212690846Y-78865534D02*
X212682577Y-78868959D01*
X212267611Y-79244866D01*
X212174487Y-79441629D01*
X212148060Y-79436372D01*
X211894698Y-79057189D01*
X211429151Y-78746120D01*
X210880000Y-78636887D01*
X210330849Y-78746120D01*
X209865302Y-79057189D01*
X209610000Y-79439275D01*
X209354698Y-79057189D01*
X208889151Y-78746120D01*
X208340000Y-78636887D01*
X207790849Y-78746120D01*
X207325302Y-79057189D01*
X207235000Y-79192335D01*
X207235000Y-79173691D01*
X207138327Y-78940302D01*
X206959699Y-78761673D01*
X206726310Y-78665000D01*
X206085750Y-78665000D01*
X205927000Y-78823750D01*
X205927000Y-79973000D01*
X205947000Y-79973000D01*
X205947000Y-80227000D01*
X205927000Y-80227000D01*
X205927000Y-80247000D01*
X205673000Y-80247000D01*
X205673000Y-80227000D01*
X204523750Y-80227000D01*
X204365000Y-80385750D01*
X204365000Y-80417800D01*
X203568489Y-80417800D01*
X203207794Y-80057106D01*
X202977065Y-79902937D01*
X202972871Y-79902103D01*
X202704415Y-79500330D01*
X202389634Y-79290000D01*
X202563702Y-79173691D01*
X204365000Y-79173691D01*
X204365000Y-79814250D01*
X204523750Y-79973000D01*
X205673000Y-79973000D01*
X205673000Y-78823750D01*
X205514250Y-78665000D01*
X204873690Y-78665000D01*
X204640301Y-78761673D01*
X204461673Y-78940302D01*
X204365000Y-79173691D01*
X202563702Y-79173691D01*
X202704415Y-79079670D01*
X203029271Y-78593489D01*
X203143345Y-78020000D01*
X203029271Y-77446511D01*
X202704415Y-76960330D01*
X202389634Y-76750000D01*
X202704415Y-76539670D01*
X202937255Y-76191200D01*
X210016512Y-76191200D01*
X212690846Y-78865534D01*
X212690846Y-78865534D01*
G37*
X212690846Y-78865534D02*
X212682577Y-78868959D01*
X212267611Y-79244866D01*
X212174487Y-79441629D01*
X212148060Y-79436372D01*
X211894698Y-79057189D01*
X211429151Y-78746120D01*
X210880000Y-78636887D01*
X210330849Y-78746120D01*
X209865302Y-79057189D01*
X209610000Y-79439275D01*
X209354698Y-79057189D01*
X208889151Y-78746120D01*
X208340000Y-78636887D01*
X207790849Y-78746120D01*
X207325302Y-79057189D01*
X207235000Y-79192335D01*
X207235000Y-79173691D01*
X207138327Y-78940302D01*
X206959699Y-78761673D01*
X206726310Y-78665000D01*
X206085750Y-78665000D01*
X205927000Y-78823750D01*
X205927000Y-79973000D01*
X205947000Y-79973000D01*
X205947000Y-80227000D01*
X205927000Y-80227000D01*
X205927000Y-80247000D01*
X205673000Y-80247000D01*
X205673000Y-80227000D01*
X204523750Y-80227000D01*
X204365000Y-80385750D01*
X204365000Y-80417800D01*
X203568489Y-80417800D01*
X203207794Y-80057106D01*
X202977065Y-79902937D01*
X202972871Y-79902103D01*
X202704415Y-79500330D01*
X202389634Y-79290000D01*
X202563702Y-79173691D01*
X204365000Y-79173691D01*
X204365000Y-79814250D01*
X204523750Y-79973000D01*
X205673000Y-79973000D01*
X205673000Y-78823750D01*
X205514250Y-78665000D01*
X204873690Y-78665000D01*
X204640301Y-78761673D01*
X204461673Y-78940302D01*
X204365000Y-79173691D01*
X202563702Y-79173691D01*
X202704415Y-79079670D01*
X203029271Y-78593489D01*
X203143345Y-78020000D01*
X203029271Y-77446511D01*
X202704415Y-76960330D01*
X202389634Y-76750000D01*
X202704415Y-76539670D01*
X202937255Y-76191200D01*
X210016512Y-76191200D01*
X212690846Y-78865534D01*
G36*
X213547000Y-79973000D02*
X213567000Y-79973000D01*
X213567000Y-80227000D01*
X213547000Y-80227000D01*
X213547000Y-80247000D01*
X213293000Y-80247000D01*
X213293000Y-80227000D01*
X213273000Y-80227000D01*
X213273000Y-79973000D01*
X213293000Y-79973000D01*
X213293000Y-79953000D01*
X213547000Y-79953000D01*
X213547000Y-79973000D01*
X213547000Y-79973000D01*
G37*
X213547000Y-79973000D02*
X213567000Y-79973000D01*
X213567000Y-80227000D01*
X213547000Y-80227000D01*
X213547000Y-80247000D01*
X213293000Y-80247000D01*
X213293000Y-80227000D01*
X213273000Y-80227000D01*
X213273000Y-79973000D01*
X213293000Y-79973000D01*
X213293000Y-79953000D01*
X213547000Y-79953000D01*
X213547000Y-79973000D01*
G36*
X156793748Y-56085858D02*
X156779605Y-56100000D01*
X158294528Y-57614923D01*
X158639271Y-57424636D01*
X158951953Y-56641141D01*
X159134300Y-56823488D01*
X159134300Y-65917412D01*
X155300700Y-62083812D01*
X155300700Y-58149382D01*
X156156591Y-58490956D01*
X157105323Y-58478641D01*
X157924636Y-58139271D01*
X158114923Y-57794528D01*
X156600000Y-56279605D01*
X156585858Y-56293748D01*
X156406253Y-56114143D01*
X156420395Y-56100000D01*
X156406253Y-56085858D01*
X156585858Y-55906253D01*
X156600000Y-55920395D01*
X156614143Y-55906253D01*
X156793748Y-56085858D01*
X156793748Y-56085858D01*
G37*
X156793748Y-56085858D02*
X156779605Y-56100000D01*
X158294528Y-57614923D01*
X158639271Y-57424636D01*
X158951953Y-56641141D01*
X159134300Y-56823488D01*
X159134300Y-65917412D01*
X155300700Y-62083812D01*
X155300700Y-58149382D01*
X156156591Y-58490956D01*
X157105323Y-58478641D01*
X157924636Y-58139271D01*
X158114923Y-57794528D01*
X156600000Y-56279605D01*
X156585858Y-56293748D01*
X156406253Y-56114143D01*
X156420395Y-56100000D01*
X156406253Y-56085858D01*
X156585858Y-55906253D01*
X156600000Y-55920395D01*
X156614143Y-55906253D01*
X156793748Y-56085858D01*
G36*
X230816100Y-55287336D02*
X230816100Y-64318600D01*
X222186100Y-64318600D01*
X222186100Y-58276488D01*
X223639900Y-59730288D01*
X223639900Y-59947200D01*
X223694037Y-60219365D01*
X223848206Y-60450094D01*
X224343504Y-60945392D01*
X224058039Y-61372622D01*
X223945000Y-61940907D01*
X223945000Y-61999093D01*
X224058039Y-62567378D01*
X224379946Y-63049147D01*
X224861715Y-63371054D01*
X225430000Y-63484093D01*
X225998285Y-63371054D01*
X226480054Y-63049147D01*
X226683385Y-62744840D01*
X226710344Y-62810086D01*
X227127717Y-63228188D01*
X227673319Y-63454742D01*
X228264089Y-63455257D01*
X228810086Y-63229656D01*
X229228188Y-62812283D01*
X229454742Y-62266681D01*
X229455257Y-61675911D01*
X229229656Y-61129914D01*
X228812283Y-60711812D01*
X228753361Y-60687345D01*
X229020054Y-60509147D01*
X229341961Y-60027378D01*
X229455000Y-59459093D01*
X229455000Y-59400907D01*
X229341961Y-58832622D01*
X229020054Y-58350853D01*
X228538285Y-58028946D01*
X227970000Y-57915907D01*
X227401715Y-58028946D01*
X226919946Y-58350853D01*
X226692298Y-58691553D01*
X226625183Y-58548642D01*
X226196924Y-58158355D01*
X225786890Y-57988524D01*
X225557000Y-58109845D01*
X225557000Y-59303000D01*
X225577000Y-59303000D01*
X225577000Y-59557000D01*
X225557000Y-59557000D01*
X225557000Y-59577000D01*
X225303000Y-59577000D01*
X225303000Y-59557000D01*
X225283000Y-59557000D01*
X225283000Y-59303000D01*
X225303000Y-59303000D01*
X225303000Y-58109845D01*
X225073110Y-57988524D01*
X224663076Y-58158355D01*
X224357775Y-58436587D01*
X220180494Y-54259306D01*
X219949765Y-54105137D01*
X219677600Y-54051000D01*
X208502088Y-54051000D01*
X208962988Y-53590100D01*
X224042200Y-53590100D01*
X224314365Y-53535963D01*
X224545094Y-53381794D01*
X224649749Y-53277139D01*
X224750000Y-53297440D01*
X225550000Y-53297440D01*
X225785317Y-53253162D01*
X226001441Y-53114090D01*
X226146431Y-52901890D01*
X226197440Y-52650000D01*
X226197440Y-52150000D01*
X226153162Y-51914683D01*
X226145658Y-51903021D01*
X226146431Y-51901890D01*
X226197440Y-51650000D01*
X226197440Y-51350000D01*
X226153162Y-51114683D01*
X226145658Y-51103021D01*
X226146431Y-51101890D01*
X226197440Y-50850000D01*
X226197440Y-50668676D01*
X230816100Y-55287336D01*
X230816100Y-55287336D01*
G37*
X230816100Y-55287336D02*
X230816100Y-64318600D01*
X222186100Y-64318600D01*
X222186100Y-58276488D01*
X223639900Y-59730288D01*
X223639900Y-59947200D01*
X223694037Y-60219365D01*
X223848206Y-60450094D01*
X224343504Y-60945392D01*
X224058039Y-61372622D01*
X223945000Y-61940907D01*
X223945000Y-61999093D01*
X224058039Y-62567378D01*
X224379946Y-63049147D01*
X224861715Y-63371054D01*
X225430000Y-63484093D01*
X225998285Y-63371054D01*
X226480054Y-63049147D01*
X226683385Y-62744840D01*
X226710344Y-62810086D01*
X227127717Y-63228188D01*
X227673319Y-63454742D01*
X228264089Y-63455257D01*
X228810086Y-63229656D01*
X229228188Y-62812283D01*
X229454742Y-62266681D01*
X229455257Y-61675911D01*
X229229656Y-61129914D01*
X228812283Y-60711812D01*
X228753361Y-60687345D01*
X229020054Y-60509147D01*
X229341961Y-60027378D01*
X229455000Y-59459093D01*
X229455000Y-59400907D01*
X229341961Y-58832622D01*
X229020054Y-58350853D01*
X228538285Y-58028946D01*
X227970000Y-57915907D01*
X227401715Y-58028946D01*
X226919946Y-58350853D01*
X226692298Y-58691553D01*
X226625183Y-58548642D01*
X226196924Y-58158355D01*
X225786890Y-57988524D01*
X225557000Y-58109845D01*
X225557000Y-59303000D01*
X225577000Y-59303000D01*
X225577000Y-59557000D01*
X225557000Y-59557000D01*
X225557000Y-59577000D01*
X225303000Y-59577000D01*
X225303000Y-59557000D01*
X225283000Y-59557000D01*
X225283000Y-59303000D01*
X225303000Y-59303000D01*
X225303000Y-58109845D01*
X225073110Y-57988524D01*
X224663076Y-58158355D01*
X224357775Y-58436587D01*
X220180494Y-54259306D01*
X219949765Y-54105137D01*
X219677600Y-54051000D01*
X208502088Y-54051000D01*
X208962988Y-53590100D01*
X224042200Y-53590100D01*
X224314365Y-53535963D01*
X224545094Y-53381794D01*
X224649749Y-53277139D01*
X224750000Y-53297440D01*
X225550000Y-53297440D01*
X225785317Y-53253162D01*
X226001441Y-53114090D01*
X226146431Y-52901890D01*
X226197440Y-52650000D01*
X226197440Y-52150000D01*
X226153162Y-51914683D01*
X226145658Y-51903021D01*
X226146431Y-51901890D01*
X226197440Y-51650000D01*
X226197440Y-51350000D01*
X226153162Y-51114683D01*
X226145658Y-51103021D01*
X226146431Y-51101890D01*
X226197440Y-50850000D01*
X226197440Y-50668676D01*
X230816100Y-55287336D01*
G36*
X155497000Y-52525000D02*
X155477000Y-52525000D01*
X155477000Y-53126250D01*
X155635750Y-53285000D01*
X155657329Y-53285000D01*
X155781206Y-53470394D01*
X156050479Y-53739667D01*
X155300700Y-54050235D01*
X155300700Y-52297440D01*
X155497000Y-52297440D01*
X155497000Y-52525000D01*
X155497000Y-52525000D01*
G37*
X155497000Y-52525000D02*
X155477000Y-52525000D01*
X155477000Y-53126250D01*
X155635750Y-53285000D01*
X155657329Y-53285000D01*
X155781206Y-53470394D01*
X156050479Y-53739667D01*
X155300700Y-54050235D01*
X155300700Y-52297440D01*
X155497000Y-52297440D01*
X155497000Y-52525000D01*
M02*
