M48
;DRILL file {KiCad 4.0.7} date 07/15/18 15:36:45
;FORMAT={-:-/ absolute / inch / decimal}
FMAT,2
INCH,TZ
T1C0.031
T2C0.039
T3C0.040
T4C0.081
T5C0.118
T6C0.130
%
G90
G05
M72
T1
X8.1024Y-2.8535
X8.1024Y-3.1535
X8.2024Y-2.8535
X8.2024Y-3.1535
X8.3024Y-2.8535
X8.3024Y-3.1535
X8.4024Y-2.8535
X8.4024Y-3.1535
X8.5024Y-2.8535
X8.5024Y-3.1535
X8.6024Y-2.8535
X8.6024Y-3.1535
X8.7024Y-2.8535
X8.7024Y-3.1535
T2
X6.4134Y-4.0315
X6.5134Y-4.0315
X6.6134Y-4.0315
X8.8752Y-2.3398
X8.8752Y-2.4398
X8.9752Y-2.3398
X8.9752Y-2.4398
T3
X7.0315Y-2.2717
X7.0315Y-2.3717
X7.0315Y-2.4717
X7.0315Y-2.5717
X7.0315Y-2.6717
X7.0315Y-2.7717
X7.0315Y-2.8717
X7.0315Y-2.9717
X7.0315Y-3.0717
X7.0315Y-3.1717
X7.0315Y-3.2717
X7.0315Y-3.3717
X7.0315Y-3.4717
X7.0315Y-3.5717
X7.0315Y-3.6717
X7.9315Y-2.2717
X7.9315Y-2.3717
X7.9315Y-2.4717
X7.9315Y-2.5717
X7.9315Y-2.6717
X7.9315Y-2.7717
X7.9315Y-2.8717
X7.9315Y-2.9717
X7.9315Y-3.0717
X7.9315Y-3.1717
X7.9315Y-3.2717
X7.9315Y-3.3717
X7.9315Y-3.4717
X7.9315Y-3.5717
X7.9315Y-3.6717
T4
X6.1654Y-2.2087
X6.1654Y-2.7087
T5
X7.4803Y-4.3701
X7.4843Y-1.5354
T6
X6.7654Y-1.9897
X6.7654Y-2.9277
X7.6404Y-1.9897
X7.6404Y-2.9277
T0
M30
