G04 #@! TF.FileFunction,Legend,Bot*
%FSLAX46Y46*%
G04 Gerber Fmt 4.6, Leading zero omitted, Abs format (unit mm)*
G04 Created by KiCad (PCBNEW 4.0.7) date 07/15/18 15:36:16*
%MOMM*%
%LPD*%
G01*
G04 APERTURE LIST*
%ADD10C,0.100000*%
%ADD11C,0.150000*%
%ADD12C,0.500000*%
G04 APERTURE END LIST*
D10*
D11*
X157870000Y-66260000D02*
X156600000Y-66260000D01*
X157870000Y-58640000D02*
X156600000Y-58640000D01*
X157870000Y-66260000D02*
X157870000Y-58640000D01*
X156600000Y-66260000D02*
X156600000Y-58640000D01*
D12*
X152790000Y-56100000D02*
X150250000Y-56100000D01*
X151520000Y-70070000D02*
X151520000Y-67530000D01*
X152790000Y-68800000D02*
X150250000Y-68800000D01*
D11*
X151448571Y-61664286D02*
X151496190Y-61807143D01*
X151543810Y-61854762D01*
X151639048Y-61902381D01*
X151781905Y-61902381D01*
X151877143Y-61854762D01*
X151924762Y-61807143D01*
X151972381Y-61711905D01*
X151972381Y-61330952D01*
X150972381Y-61330952D01*
X150972381Y-61664286D01*
X151020000Y-61759524D01*
X151067619Y-61807143D01*
X151162857Y-61854762D01*
X151258095Y-61854762D01*
X151353333Y-61807143D01*
X151400952Y-61759524D01*
X151448571Y-61664286D01*
X151448571Y-61330952D01*
X150972381Y-62188095D02*
X150972381Y-62759524D01*
X151972381Y-62473809D02*
X150972381Y-62473809D01*
X151972381Y-63616667D02*
X151972381Y-63045238D01*
X151972381Y-63330952D02*
X150972381Y-63330952D01*
X151115238Y-63235714D01*
X151210476Y-63140476D01*
X151258095Y-63045238D01*
M02*
