G04 #@! TF.FileFunction,Copper,L2,Bot,Signal*
%FSLAX46Y46*%
G04 Gerber Fmt 4.6, Leading zero omitted, Abs format (unit mm)*
G04 Created by KiCad (PCBNEW 4.0.7) date 07/15/18 15:36:16*
%MOMM*%
%LPD*%
G01*
G04 APERTURE LIST*
%ADD10C,0.100000*%
%ADD11C,3.500000*%
%ADD12C,4.572000*%
%ADD13R,1.800000X1.800000*%
%ADD14O,1.800000X1.800000*%
%ADD15O,2.032000X1.727200*%
%ADD16C,1.700000*%
%ADD17O,1.700000X1.700000*%
%ADD18R,1.600000X1.600000*%
%ADD19O,1.600000X1.600000*%
%ADD20C,6.000000*%
%ADD21C,0.500000*%
%ADD22C,0.152400*%
%ADD23C,1.000000*%
%ADD24C,0.254000*%
G04 APERTURE END LIST*
D10*
D11*
X156600000Y-68800000D03*
X156600000Y-56100000D03*
D12*
X171840000Y-50537400D03*
X171840000Y-74362600D03*
X194065000Y-74362600D03*
X194065000Y-50537400D03*
D13*
X162900000Y-102400000D03*
D14*
X165440000Y-102400000D03*
X167980000Y-102400000D03*
D15*
X178600000Y-57700000D03*
X178600000Y-60240000D03*
X178600000Y-62780000D03*
X178600000Y-65320000D03*
X178600000Y-67860000D03*
X178600000Y-70400000D03*
X178600000Y-72940000D03*
X178600000Y-75480000D03*
X178600000Y-78020000D03*
X178600000Y-80560000D03*
X178600000Y-83100000D03*
X178600000Y-85640000D03*
X178600000Y-88180000D03*
X178600000Y-90720000D03*
X178600000Y-93260000D03*
X201460000Y-57700000D03*
X201460000Y-88180000D03*
X201460000Y-90720000D03*
X201460000Y-85640000D03*
X201460000Y-70400000D03*
X201460000Y-67860000D03*
X201460000Y-72940000D03*
X201460000Y-93260000D03*
X201460000Y-78020000D03*
X201460000Y-75480000D03*
X201460000Y-80560000D03*
X201460000Y-83100000D03*
X201460000Y-62780000D03*
X201460000Y-65320000D03*
X201460000Y-60240000D03*
D16*
X227970000Y-61970000D03*
D17*
X225430000Y-61970000D03*
X227970000Y-59430000D03*
X225430000Y-59430000D03*
D18*
X205800000Y-80100000D03*
D19*
X221040000Y-72480000D03*
X208340000Y-80100000D03*
X218500000Y-72480000D03*
X210880000Y-80100000D03*
X215960000Y-72480000D03*
X213420000Y-80100000D03*
X213420000Y-72480000D03*
X215960000Y-80100000D03*
X210880000Y-72480000D03*
X218500000Y-80100000D03*
X208340000Y-72480000D03*
X221040000Y-80100000D03*
X205800000Y-72480000D03*
D20*
X190100000Y-39000000D03*
X190000000Y-111000000D03*
D21*
X176752732Y-90749925D02*
X176752732Y-91087268D01*
X176752732Y-91087268D02*
X165440000Y-102400000D01*
X156600000Y-56100000D02*
X156600000Y-63800000D01*
X156600000Y-63800000D02*
X155800000Y-64600000D01*
D22*
X218918200Y-81192900D02*
X220011100Y-80100000D01*
X215541800Y-81192900D02*
X218918200Y-81192900D01*
X214448900Y-80100000D02*
X215541800Y-81192900D01*
X213420000Y-80100000D02*
X214448900Y-80100000D01*
X221040000Y-80100000D02*
X220011100Y-80100000D01*
X225430000Y-59430000D02*
X224351100Y-59430000D01*
X205800000Y-80100000D02*
X205800000Y-79071100D01*
X219637200Y-54716100D02*
X224351100Y-59430000D01*
X209422000Y-54716100D02*
X219637200Y-54716100D01*
X207134000Y-57004100D02*
X209422000Y-54716100D01*
X207134000Y-77737100D02*
X207134000Y-57004100D01*
X205800000Y-79071100D02*
X207134000Y-77737100D01*
X176800000Y-90700000D02*
X176752732Y-90749925D01*
D23*
X178600000Y-90720000D02*
X176800000Y-90700000D01*
X176500000Y-78200000D02*
X176800000Y-90700000D01*
D21*
X155800000Y-64600000D02*
X171100000Y-78200000D01*
X171100000Y-78200000D02*
X176500000Y-78200000D01*
X178600000Y-93260000D02*
X177120000Y-93260000D01*
X177120000Y-93260000D02*
X167980000Y-102400000D01*
D22*
X205800000Y-72480000D02*
X204771100Y-72480000D01*
X181955400Y-93260000D02*
X178600000Y-93260000D01*
X201005400Y-74210000D02*
X181955400Y-93260000D01*
X203041100Y-74210000D02*
X201005400Y-74210000D01*
X204771100Y-72480000D02*
X203041100Y-74210000D01*
D21*
X156600000Y-68800000D02*
X156900000Y-68800000D01*
X156900000Y-68800000D02*
X167300000Y-79200000D01*
X164600000Y-100700000D02*
X162900000Y-102400000D01*
X165800000Y-100700000D02*
X164600000Y-100700000D01*
X173800000Y-92700000D02*
X165800000Y-100700000D01*
X173800000Y-80000000D02*
X173800000Y-92700000D01*
X173000000Y-79200000D02*
X173800000Y-80000000D01*
X167300000Y-79200000D02*
X173000000Y-79200000D01*
D22*
X227970000Y-59430000D02*
X226891100Y-59430000D01*
X201460000Y-93260000D02*
X201460000Y-92167500D01*
X226891100Y-59295100D02*
X226891100Y-59430000D01*
X222003400Y-54407400D02*
X226891100Y-59295100D01*
X209299000Y-54407400D02*
X222003400Y-54407400D01*
X206828900Y-56877500D02*
X209299000Y-54407400D01*
X206828900Y-74210000D02*
X206828900Y-56877500D01*
X202907400Y-78131500D02*
X206828900Y-74210000D01*
X202907400Y-91022600D02*
X202907400Y-78131500D01*
X201762500Y-92167500D02*
X202907400Y-91022600D01*
X201460000Y-92167500D02*
X201762500Y-92167500D01*
X201818200Y-61687500D02*
X201460000Y-61687500D01*
X202907400Y-60598300D02*
X201818200Y-61687500D01*
X202907400Y-60351400D02*
X202907400Y-60598300D01*
X209209200Y-54049600D02*
X202907400Y-60351400D01*
X224176800Y-54049600D02*
X209209200Y-54049600D01*
X229069900Y-58942700D02*
X224176800Y-54049600D01*
X229069900Y-60870100D02*
X229069900Y-58942700D01*
X227970000Y-61970000D02*
X229069900Y-60870100D01*
X201460000Y-62780000D02*
X201460000Y-61687500D01*
D24*
G36*
X230816100Y-80287336D02*
X230816100Y-94719864D01*
X221217364Y-104318600D01*
X207784836Y-104318600D01*
X197985468Y-94519232D01*
X197763238Y-94370743D01*
X197501100Y-94318600D01*
X197238962Y-94370743D01*
X197016732Y-94519232D01*
X196868243Y-94741462D01*
X196816100Y-95003600D01*
X196816100Y-104318600D01*
X192501100Y-104318600D01*
X192238962Y-104370743D01*
X192016732Y-104519232D01*
X191868243Y-104741462D01*
X191861970Y-104773000D01*
X188140230Y-104773000D01*
X188133957Y-104741462D01*
X187985468Y-104519232D01*
X187763238Y-104370743D01*
X187501100Y-104318600D01*
X183186100Y-104318600D01*
X183186100Y-95003600D01*
X183133957Y-94741462D01*
X182985468Y-94519232D01*
X182763238Y-94370743D01*
X182501100Y-94318600D01*
X182238962Y-94370743D01*
X182016732Y-94519232D01*
X172217364Y-104318600D01*
X158784836Y-104318600D01*
X149186100Y-94719864D01*
X149186100Y-85688600D01*
X157816100Y-85688600D01*
X157816100Y-93003600D01*
X157868243Y-93265738D01*
X158016732Y-93487968D01*
X160016732Y-95487968D01*
X160238962Y-95636457D01*
X160501100Y-95688600D01*
X169559821Y-95688600D01*
X165433420Y-99815000D01*
X164600005Y-99815000D01*
X164600000Y-99814999D01*
X164317516Y-99871190D01*
X164261325Y-99882367D01*
X163974210Y-100074210D01*
X163974208Y-100074213D01*
X163195861Y-100852560D01*
X162000000Y-100852560D01*
X161764683Y-100896838D01*
X161548559Y-101035910D01*
X161403569Y-101248110D01*
X161352560Y-101500000D01*
X161352560Y-103300000D01*
X161396838Y-103535317D01*
X161535910Y-103751441D01*
X161748110Y-103896431D01*
X162000000Y-103947440D01*
X163800000Y-103947440D01*
X164035317Y-103903162D01*
X164251441Y-103764090D01*
X164396431Y-103551890D01*
X164406766Y-103500854D01*
X164532424Y-103637966D01*
X165075258Y-103891046D01*
X165313000Y-103770997D01*
X165313000Y-102527000D01*
X165293000Y-102527000D01*
X165293000Y-102273000D01*
X165313000Y-102273000D01*
X165313000Y-102253000D01*
X165567000Y-102253000D01*
X165567000Y-102273000D01*
X165587000Y-102273000D01*
X165587000Y-102527000D01*
X165567000Y-102527000D01*
X165567000Y-103770997D01*
X165804742Y-103891046D01*
X166347576Y-103637966D01*
X166705499Y-103247418D01*
X166864519Y-103485409D01*
X167362509Y-103818155D01*
X167949928Y-103935000D01*
X168010072Y-103935000D01*
X168597491Y-103818155D01*
X169095481Y-103485409D01*
X169428227Y-102987419D01*
X169545072Y-102400000D01*
X169493060Y-102138520D01*
X177338091Y-94293488D01*
X177355585Y-94319670D01*
X177841766Y-94644526D01*
X178415255Y-94758600D01*
X178784745Y-94758600D01*
X179358234Y-94644526D01*
X179844415Y-94319670D01*
X180077255Y-93971200D01*
X181955400Y-93971200D01*
X182227565Y-93917063D01*
X182458294Y-93762894D01*
X200001668Y-76219521D01*
X200215585Y-76539670D01*
X200530366Y-76750000D01*
X200215585Y-76960330D01*
X199890729Y-77446511D01*
X199776655Y-78020000D01*
X199890729Y-78593489D01*
X200215585Y-79079670D01*
X200530366Y-79290000D01*
X200215585Y-79500330D01*
X199890729Y-79986511D01*
X199776655Y-80560000D01*
X199890729Y-81133489D01*
X200215585Y-81619670D01*
X200530366Y-81830000D01*
X200215585Y-82040330D01*
X199890729Y-82526511D01*
X199776655Y-83100000D01*
X199890729Y-83673489D01*
X200215585Y-84159670D01*
X200530366Y-84370000D01*
X200215585Y-84580330D01*
X199890729Y-85066511D01*
X199776655Y-85640000D01*
X199890729Y-86213489D01*
X200215585Y-86699670D01*
X200530366Y-86910000D01*
X200215585Y-87120330D01*
X199890729Y-87606511D01*
X199776655Y-88180000D01*
X199890729Y-88753489D01*
X200215585Y-89239670D01*
X200530366Y-89450000D01*
X200215585Y-89660330D01*
X199890729Y-90146511D01*
X199776655Y-90720000D01*
X199890729Y-91293489D01*
X200215585Y-91779670D01*
X200530366Y-91990000D01*
X200215585Y-92200330D01*
X199890729Y-92686511D01*
X199776655Y-93260000D01*
X199890729Y-93833489D01*
X200215585Y-94319670D01*
X200701766Y-94644526D01*
X201275255Y-94758600D01*
X201644745Y-94758600D01*
X202218234Y-94644526D01*
X202704415Y-94319670D01*
X203029271Y-93833489D01*
X203143345Y-93260000D01*
X203029271Y-92686511D01*
X202716849Y-92218939D01*
X203410294Y-91525494D01*
X203564463Y-91294765D01*
X203604240Y-91094791D01*
X203618600Y-91022600D01*
X203618600Y-82503600D01*
X208816100Y-82503600D01*
X208816100Y-92503600D01*
X208868243Y-92765738D01*
X209016732Y-92987968D01*
X209238962Y-93136457D01*
X209501100Y-93188600D01*
X219501100Y-93188600D01*
X219763238Y-93136457D01*
X219985468Y-92987968D01*
X220133957Y-92765738D01*
X220186100Y-92503600D01*
X220186100Y-82503600D01*
X220133957Y-82241462D01*
X219985468Y-82019232D01*
X219763238Y-81870743D01*
X219501100Y-81818600D01*
X209501100Y-81818600D01*
X209238962Y-81870743D01*
X209016732Y-82019232D01*
X208868243Y-82241462D01*
X208816100Y-82503600D01*
X203618600Y-82503600D01*
X203618600Y-80385750D01*
X204365000Y-80385750D01*
X204365000Y-81026309D01*
X204461673Y-81259698D01*
X204640301Y-81438327D01*
X204873690Y-81535000D01*
X205514250Y-81535000D01*
X205673000Y-81376250D01*
X205673000Y-80227000D01*
X204523750Y-80227000D01*
X204365000Y-80385750D01*
X203618600Y-80385750D01*
X203618600Y-79173691D01*
X204365000Y-79173691D01*
X204365000Y-79814250D01*
X204523750Y-79973000D01*
X205673000Y-79973000D01*
X205673000Y-78823750D01*
X205927000Y-78823750D01*
X205927000Y-79973000D01*
X205947000Y-79973000D01*
X205947000Y-80227000D01*
X205927000Y-80227000D01*
X205927000Y-81376250D01*
X206085750Y-81535000D01*
X206726310Y-81535000D01*
X206959699Y-81438327D01*
X207138327Y-81259698D01*
X207235000Y-81026309D01*
X207235000Y-81007665D01*
X207325302Y-81142811D01*
X207790849Y-81453880D01*
X208340000Y-81563113D01*
X208889151Y-81453880D01*
X209354698Y-81142811D01*
X209610000Y-80760725D01*
X209865302Y-81142811D01*
X210330849Y-81453880D01*
X210880000Y-81563113D01*
X211429151Y-81453880D01*
X211894698Y-81142811D01*
X212164986Y-80738297D01*
X212267611Y-80955134D01*
X212682577Y-81331041D01*
X213070961Y-81491904D01*
X213293000Y-81369915D01*
X213293000Y-80227000D01*
X213273000Y-80227000D01*
X213273000Y-79973000D01*
X213293000Y-79973000D01*
X213293000Y-78830085D01*
X213547000Y-78830085D01*
X213547000Y-79973000D01*
X213567000Y-79973000D01*
X213567000Y-80227000D01*
X213547000Y-80227000D01*
X213547000Y-81369915D01*
X213769039Y-81491904D01*
X214157423Y-81331041D01*
X214572389Y-80955134D01*
X214675014Y-80738297D01*
X214945302Y-81142811D01*
X215410849Y-81453880D01*
X215960000Y-81563113D01*
X216509151Y-81453880D01*
X216974698Y-81142811D01*
X217230000Y-80760725D01*
X217485302Y-81142811D01*
X217950849Y-81453880D01*
X218500000Y-81563113D01*
X219049151Y-81453880D01*
X219514698Y-81142811D01*
X219784986Y-80738297D01*
X219887611Y-80955134D01*
X220302577Y-81331041D01*
X220690961Y-81491904D01*
X220913000Y-81369915D01*
X220913000Y-80227000D01*
X221167000Y-80227000D01*
X221167000Y-81369915D01*
X221389039Y-81491904D01*
X221777423Y-81331041D01*
X222192389Y-80955134D01*
X222431914Y-80449041D01*
X222310629Y-80227000D01*
X221167000Y-80227000D01*
X220913000Y-80227000D01*
X220893000Y-80227000D01*
X220893000Y-79973000D01*
X220913000Y-79973000D01*
X220913000Y-78830085D01*
X221167000Y-78830085D01*
X221167000Y-79973000D01*
X222310629Y-79973000D01*
X222431914Y-79750959D01*
X222192389Y-79244866D01*
X221777423Y-78868959D01*
X221389039Y-78708096D01*
X221167000Y-78830085D01*
X220913000Y-78830085D01*
X220690961Y-78708096D01*
X220302577Y-78868959D01*
X219887611Y-79244866D01*
X219784986Y-79461703D01*
X219514698Y-79057189D01*
X219049151Y-78746120D01*
X218500000Y-78636887D01*
X217950849Y-78746120D01*
X217485302Y-79057189D01*
X217230000Y-79439275D01*
X216974698Y-79057189D01*
X216509151Y-78746120D01*
X215960000Y-78636887D01*
X215410849Y-78746120D01*
X214945302Y-79057189D01*
X214675014Y-79461703D01*
X214572389Y-79244866D01*
X214157423Y-78868959D01*
X213769039Y-78708096D01*
X213547000Y-78830085D01*
X213293000Y-78830085D01*
X213070961Y-78708096D01*
X212682577Y-78868959D01*
X212267611Y-79244866D01*
X212164986Y-79461703D01*
X211894698Y-79057189D01*
X211429151Y-78746120D01*
X210880000Y-78636887D01*
X210330849Y-78746120D01*
X209865302Y-79057189D01*
X209610000Y-79439275D01*
X209354698Y-79057189D01*
X208889151Y-78746120D01*
X208340000Y-78636887D01*
X207790849Y-78746120D01*
X207325302Y-79057189D01*
X207235000Y-79192335D01*
X207235000Y-79173691D01*
X207138327Y-78940302D01*
X206959699Y-78761673D01*
X206726310Y-78665000D01*
X206085750Y-78665000D01*
X205927000Y-78823750D01*
X205673000Y-78823750D01*
X205514250Y-78665000D01*
X204873690Y-78665000D01*
X204640301Y-78761673D01*
X204461673Y-78940302D01*
X204365000Y-79173691D01*
X203618600Y-79173691D01*
X203618600Y-78426088D01*
X207331794Y-74712895D01*
X207485962Y-74482165D01*
X207485963Y-74482164D01*
X207540100Y-74210000D01*
X207540100Y-73666335D01*
X207790849Y-73833880D01*
X208340000Y-73943113D01*
X208889151Y-73833880D01*
X209354698Y-73522811D01*
X209610000Y-73140725D01*
X209865302Y-73522811D01*
X210330849Y-73833880D01*
X210880000Y-73943113D01*
X211429151Y-73833880D01*
X211894698Y-73522811D01*
X212150000Y-73140725D01*
X212405302Y-73522811D01*
X212870849Y-73833880D01*
X213420000Y-73943113D01*
X213969151Y-73833880D01*
X214434698Y-73522811D01*
X214690000Y-73140725D01*
X214945302Y-73522811D01*
X215410849Y-73833880D01*
X215960000Y-73943113D01*
X216509151Y-73833880D01*
X216974698Y-73522811D01*
X217230000Y-73140725D01*
X217485302Y-73522811D01*
X217950849Y-73833880D01*
X218500000Y-73943113D01*
X219049151Y-73833880D01*
X219514698Y-73522811D01*
X219770000Y-73140725D01*
X220025302Y-73522811D01*
X220490849Y-73833880D01*
X221040000Y-73943113D01*
X221589151Y-73833880D01*
X222054698Y-73522811D01*
X222365767Y-73057264D01*
X222475000Y-72508113D01*
X222475000Y-72451887D01*
X222365767Y-71902736D01*
X222233402Y-71704638D01*
X230816100Y-80287336D01*
X230816100Y-80287336D01*
G37*
X230816100Y-80287336D02*
X230816100Y-94719864D01*
X221217364Y-104318600D01*
X207784836Y-104318600D01*
X197985468Y-94519232D01*
X197763238Y-94370743D01*
X197501100Y-94318600D01*
X197238962Y-94370743D01*
X197016732Y-94519232D01*
X196868243Y-94741462D01*
X196816100Y-95003600D01*
X196816100Y-104318600D01*
X192501100Y-104318600D01*
X192238962Y-104370743D01*
X192016732Y-104519232D01*
X191868243Y-104741462D01*
X191861970Y-104773000D01*
X188140230Y-104773000D01*
X188133957Y-104741462D01*
X187985468Y-104519232D01*
X187763238Y-104370743D01*
X187501100Y-104318600D01*
X183186100Y-104318600D01*
X183186100Y-95003600D01*
X183133957Y-94741462D01*
X182985468Y-94519232D01*
X182763238Y-94370743D01*
X182501100Y-94318600D01*
X182238962Y-94370743D01*
X182016732Y-94519232D01*
X172217364Y-104318600D01*
X158784836Y-104318600D01*
X149186100Y-94719864D01*
X149186100Y-85688600D01*
X157816100Y-85688600D01*
X157816100Y-93003600D01*
X157868243Y-93265738D01*
X158016732Y-93487968D01*
X160016732Y-95487968D01*
X160238962Y-95636457D01*
X160501100Y-95688600D01*
X169559821Y-95688600D01*
X165433420Y-99815000D01*
X164600005Y-99815000D01*
X164600000Y-99814999D01*
X164317516Y-99871190D01*
X164261325Y-99882367D01*
X163974210Y-100074210D01*
X163974208Y-100074213D01*
X163195861Y-100852560D01*
X162000000Y-100852560D01*
X161764683Y-100896838D01*
X161548559Y-101035910D01*
X161403569Y-101248110D01*
X161352560Y-101500000D01*
X161352560Y-103300000D01*
X161396838Y-103535317D01*
X161535910Y-103751441D01*
X161748110Y-103896431D01*
X162000000Y-103947440D01*
X163800000Y-103947440D01*
X164035317Y-103903162D01*
X164251441Y-103764090D01*
X164396431Y-103551890D01*
X164406766Y-103500854D01*
X164532424Y-103637966D01*
X165075258Y-103891046D01*
X165313000Y-103770997D01*
X165313000Y-102527000D01*
X165293000Y-102527000D01*
X165293000Y-102273000D01*
X165313000Y-102273000D01*
X165313000Y-102253000D01*
X165567000Y-102253000D01*
X165567000Y-102273000D01*
X165587000Y-102273000D01*
X165587000Y-102527000D01*
X165567000Y-102527000D01*
X165567000Y-103770997D01*
X165804742Y-103891046D01*
X166347576Y-103637966D01*
X166705499Y-103247418D01*
X166864519Y-103485409D01*
X167362509Y-103818155D01*
X167949928Y-103935000D01*
X168010072Y-103935000D01*
X168597491Y-103818155D01*
X169095481Y-103485409D01*
X169428227Y-102987419D01*
X169545072Y-102400000D01*
X169493060Y-102138520D01*
X177338091Y-94293488D01*
X177355585Y-94319670D01*
X177841766Y-94644526D01*
X178415255Y-94758600D01*
X178784745Y-94758600D01*
X179358234Y-94644526D01*
X179844415Y-94319670D01*
X180077255Y-93971200D01*
X181955400Y-93971200D01*
X182227565Y-93917063D01*
X182458294Y-93762894D01*
X200001668Y-76219521D01*
X200215585Y-76539670D01*
X200530366Y-76750000D01*
X200215585Y-76960330D01*
X199890729Y-77446511D01*
X199776655Y-78020000D01*
X199890729Y-78593489D01*
X200215585Y-79079670D01*
X200530366Y-79290000D01*
X200215585Y-79500330D01*
X199890729Y-79986511D01*
X199776655Y-80560000D01*
X199890729Y-81133489D01*
X200215585Y-81619670D01*
X200530366Y-81830000D01*
X200215585Y-82040330D01*
X199890729Y-82526511D01*
X199776655Y-83100000D01*
X199890729Y-83673489D01*
X200215585Y-84159670D01*
X200530366Y-84370000D01*
X200215585Y-84580330D01*
X199890729Y-85066511D01*
X199776655Y-85640000D01*
X199890729Y-86213489D01*
X200215585Y-86699670D01*
X200530366Y-86910000D01*
X200215585Y-87120330D01*
X199890729Y-87606511D01*
X199776655Y-88180000D01*
X199890729Y-88753489D01*
X200215585Y-89239670D01*
X200530366Y-89450000D01*
X200215585Y-89660330D01*
X199890729Y-90146511D01*
X199776655Y-90720000D01*
X199890729Y-91293489D01*
X200215585Y-91779670D01*
X200530366Y-91990000D01*
X200215585Y-92200330D01*
X199890729Y-92686511D01*
X199776655Y-93260000D01*
X199890729Y-93833489D01*
X200215585Y-94319670D01*
X200701766Y-94644526D01*
X201275255Y-94758600D01*
X201644745Y-94758600D01*
X202218234Y-94644526D01*
X202704415Y-94319670D01*
X203029271Y-93833489D01*
X203143345Y-93260000D01*
X203029271Y-92686511D01*
X202716849Y-92218939D01*
X203410294Y-91525494D01*
X203564463Y-91294765D01*
X203604240Y-91094791D01*
X203618600Y-91022600D01*
X203618600Y-82503600D01*
X208816100Y-82503600D01*
X208816100Y-92503600D01*
X208868243Y-92765738D01*
X209016732Y-92987968D01*
X209238962Y-93136457D01*
X209501100Y-93188600D01*
X219501100Y-93188600D01*
X219763238Y-93136457D01*
X219985468Y-92987968D01*
X220133957Y-92765738D01*
X220186100Y-92503600D01*
X220186100Y-82503600D01*
X220133957Y-82241462D01*
X219985468Y-82019232D01*
X219763238Y-81870743D01*
X219501100Y-81818600D01*
X209501100Y-81818600D01*
X209238962Y-81870743D01*
X209016732Y-82019232D01*
X208868243Y-82241462D01*
X208816100Y-82503600D01*
X203618600Y-82503600D01*
X203618600Y-80385750D01*
X204365000Y-80385750D01*
X204365000Y-81026309D01*
X204461673Y-81259698D01*
X204640301Y-81438327D01*
X204873690Y-81535000D01*
X205514250Y-81535000D01*
X205673000Y-81376250D01*
X205673000Y-80227000D01*
X204523750Y-80227000D01*
X204365000Y-80385750D01*
X203618600Y-80385750D01*
X203618600Y-79173691D01*
X204365000Y-79173691D01*
X204365000Y-79814250D01*
X204523750Y-79973000D01*
X205673000Y-79973000D01*
X205673000Y-78823750D01*
X205927000Y-78823750D01*
X205927000Y-79973000D01*
X205947000Y-79973000D01*
X205947000Y-80227000D01*
X205927000Y-80227000D01*
X205927000Y-81376250D01*
X206085750Y-81535000D01*
X206726310Y-81535000D01*
X206959699Y-81438327D01*
X207138327Y-81259698D01*
X207235000Y-81026309D01*
X207235000Y-81007665D01*
X207325302Y-81142811D01*
X207790849Y-81453880D01*
X208340000Y-81563113D01*
X208889151Y-81453880D01*
X209354698Y-81142811D01*
X209610000Y-80760725D01*
X209865302Y-81142811D01*
X210330849Y-81453880D01*
X210880000Y-81563113D01*
X211429151Y-81453880D01*
X211894698Y-81142811D01*
X212164986Y-80738297D01*
X212267611Y-80955134D01*
X212682577Y-81331041D01*
X213070961Y-81491904D01*
X213293000Y-81369915D01*
X213293000Y-80227000D01*
X213273000Y-80227000D01*
X213273000Y-79973000D01*
X213293000Y-79973000D01*
X213293000Y-78830085D01*
X213547000Y-78830085D01*
X213547000Y-79973000D01*
X213567000Y-79973000D01*
X213567000Y-80227000D01*
X213547000Y-80227000D01*
X213547000Y-81369915D01*
X213769039Y-81491904D01*
X214157423Y-81331041D01*
X214572389Y-80955134D01*
X214675014Y-80738297D01*
X214945302Y-81142811D01*
X215410849Y-81453880D01*
X215960000Y-81563113D01*
X216509151Y-81453880D01*
X216974698Y-81142811D01*
X217230000Y-80760725D01*
X217485302Y-81142811D01*
X217950849Y-81453880D01*
X218500000Y-81563113D01*
X219049151Y-81453880D01*
X219514698Y-81142811D01*
X219784986Y-80738297D01*
X219887611Y-80955134D01*
X220302577Y-81331041D01*
X220690961Y-81491904D01*
X220913000Y-81369915D01*
X220913000Y-80227000D01*
X221167000Y-80227000D01*
X221167000Y-81369915D01*
X221389039Y-81491904D01*
X221777423Y-81331041D01*
X222192389Y-80955134D01*
X222431914Y-80449041D01*
X222310629Y-80227000D01*
X221167000Y-80227000D01*
X220913000Y-80227000D01*
X220893000Y-80227000D01*
X220893000Y-79973000D01*
X220913000Y-79973000D01*
X220913000Y-78830085D01*
X221167000Y-78830085D01*
X221167000Y-79973000D01*
X222310629Y-79973000D01*
X222431914Y-79750959D01*
X222192389Y-79244866D01*
X221777423Y-78868959D01*
X221389039Y-78708096D01*
X221167000Y-78830085D01*
X220913000Y-78830085D01*
X220690961Y-78708096D01*
X220302577Y-78868959D01*
X219887611Y-79244866D01*
X219784986Y-79461703D01*
X219514698Y-79057189D01*
X219049151Y-78746120D01*
X218500000Y-78636887D01*
X217950849Y-78746120D01*
X217485302Y-79057189D01*
X217230000Y-79439275D01*
X216974698Y-79057189D01*
X216509151Y-78746120D01*
X215960000Y-78636887D01*
X215410849Y-78746120D01*
X214945302Y-79057189D01*
X214675014Y-79461703D01*
X214572389Y-79244866D01*
X214157423Y-78868959D01*
X213769039Y-78708096D01*
X213547000Y-78830085D01*
X213293000Y-78830085D01*
X213070961Y-78708096D01*
X212682577Y-78868959D01*
X212267611Y-79244866D01*
X212164986Y-79461703D01*
X211894698Y-79057189D01*
X211429151Y-78746120D01*
X210880000Y-78636887D01*
X210330849Y-78746120D01*
X209865302Y-79057189D01*
X209610000Y-79439275D01*
X209354698Y-79057189D01*
X208889151Y-78746120D01*
X208340000Y-78636887D01*
X207790849Y-78746120D01*
X207325302Y-79057189D01*
X207235000Y-79192335D01*
X207235000Y-79173691D01*
X207138327Y-78940302D01*
X206959699Y-78761673D01*
X206726310Y-78665000D01*
X206085750Y-78665000D01*
X205927000Y-78823750D01*
X205673000Y-78823750D01*
X205514250Y-78665000D01*
X204873690Y-78665000D01*
X204640301Y-78761673D01*
X204461673Y-78940302D01*
X204365000Y-79173691D01*
X203618600Y-79173691D01*
X203618600Y-78426088D01*
X207331794Y-74712895D01*
X207485962Y-74482165D01*
X207485963Y-74482164D01*
X207540100Y-74210000D01*
X207540100Y-73666335D01*
X207790849Y-73833880D01*
X208340000Y-73943113D01*
X208889151Y-73833880D01*
X209354698Y-73522811D01*
X209610000Y-73140725D01*
X209865302Y-73522811D01*
X210330849Y-73833880D01*
X210880000Y-73943113D01*
X211429151Y-73833880D01*
X211894698Y-73522811D01*
X212150000Y-73140725D01*
X212405302Y-73522811D01*
X212870849Y-73833880D01*
X213420000Y-73943113D01*
X213969151Y-73833880D01*
X214434698Y-73522811D01*
X214690000Y-73140725D01*
X214945302Y-73522811D01*
X215410849Y-73833880D01*
X215960000Y-73943113D01*
X216509151Y-73833880D01*
X216974698Y-73522811D01*
X217230000Y-73140725D01*
X217485302Y-73522811D01*
X217950849Y-73833880D01*
X218500000Y-73943113D01*
X219049151Y-73833880D01*
X219514698Y-73522811D01*
X219770000Y-73140725D01*
X220025302Y-73522811D01*
X220490849Y-73833880D01*
X221040000Y-73943113D01*
X221589151Y-73833880D01*
X222054698Y-73522811D01*
X222365767Y-73057264D01*
X222475000Y-72508113D01*
X222475000Y-72451887D01*
X222365767Y-71902736D01*
X222233402Y-71704638D01*
X230816100Y-80287336D01*
G36*
X191884277Y-45289735D02*
X192016732Y-45487968D01*
X192238962Y-45636457D01*
X192501100Y-45688600D01*
X196816100Y-45688600D01*
X196816100Y-49546512D01*
X196542747Y-48884948D01*
X195721774Y-48062540D01*
X194648572Y-47616908D01*
X193486526Y-47615894D01*
X192412548Y-48059653D01*
X191590140Y-48880626D01*
X191144508Y-49953828D01*
X191143494Y-51115874D01*
X191587253Y-52189852D01*
X192408226Y-53012260D01*
X193481428Y-53457892D01*
X194643474Y-53458906D01*
X195717452Y-53015147D01*
X196539860Y-52194174D01*
X196816100Y-51528914D01*
X196816100Y-55003600D01*
X196868243Y-55265738D01*
X197016732Y-55487968D01*
X197238962Y-55636457D01*
X197501100Y-55688600D01*
X197763238Y-55636457D01*
X197985468Y-55487968D01*
X207784836Y-45688600D01*
X221217364Y-45688600D01*
X230816100Y-55287336D01*
X230816100Y-64318600D01*
X222186100Y-64318600D01*
X222186100Y-57003600D01*
X222133957Y-56741462D01*
X221985468Y-56519232D01*
X220584836Y-55118600D01*
X221708812Y-55118600D01*
X224723528Y-58133317D01*
X224663076Y-58158355D01*
X224234817Y-58548642D01*
X223988514Y-59073108D01*
X224109181Y-59303000D01*
X225303000Y-59303000D01*
X225303000Y-59283000D01*
X225557000Y-59283000D01*
X225557000Y-59303000D01*
X225577000Y-59303000D01*
X225577000Y-59557000D01*
X225557000Y-59557000D01*
X225557000Y-59577000D01*
X225303000Y-59577000D01*
X225303000Y-59557000D01*
X224109181Y-59557000D01*
X223988514Y-59786892D01*
X224234817Y-60311358D01*
X224663076Y-60701645D01*
X224663101Y-60701655D01*
X224379946Y-60890853D01*
X224058039Y-61372622D01*
X223945000Y-61940907D01*
X223945000Y-61999093D01*
X224058039Y-62567378D01*
X224379946Y-63049147D01*
X224861715Y-63371054D01*
X225430000Y-63484093D01*
X225998285Y-63371054D01*
X226480054Y-63049147D01*
X226683385Y-62744840D01*
X226710344Y-62810086D01*
X227127717Y-63228188D01*
X227673319Y-63454742D01*
X228264089Y-63455257D01*
X228810086Y-63229656D01*
X229228188Y-62812283D01*
X229454742Y-62266681D01*
X229455257Y-61675911D01*
X229401056Y-61544733D01*
X229572794Y-61372995D01*
X229726962Y-61142265D01*
X229726963Y-61142264D01*
X229781100Y-60870100D01*
X229781100Y-58942700D01*
X229726963Y-58670536D01*
X229645516Y-58548642D01*
X229572794Y-58439805D01*
X224679694Y-53546706D01*
X224448965Y-53392537D01*
X224176800Y-53338400D01*
X209209200Y-53338400D01*
X208982190Y-53383555D01*
X208937035Y-53392537D01*
X208706306Y-53546706D01*
X202851922Y-59401090D01*
X202704415Y-59180330D01*
X202389634Y-58970000D01*
X202704415Y-58759670D01*
X203029271Y-58273489D01*
X203143345Y-57700000D01*
X203029271Y-57126511D01*
X202704415Y-56640330D01*
X202218234Y-56315474D01*
X201644745Y-56201400D01*
X201275255Y-56201400D01*
X200701766Y-56315474D01*
X200215585Y-56640330D01*
X199890729Y-57126511D01*
X199776655Y-57700000D01*
X199890729Y-58273489D01*
X200215585Y-58759670D01*
X200530366Y-58970000D01*
X200215585Y-59180330D01*
X199890729Y-59666511D01*
X199776655Y-60240000D01*
X199890729Y-60813489D01*
X200215585Y-61299670D01*
X200530366Y-61510000D01*
X200215585Y-61720330D01*
X199890729Y-62206511D01*
X199776655Y-62780000D01*
X199890729Y-63353489D01*
X200215585Y-63839670D01*
X200530366Y-64050000D01*
X200215585Y-64260330D01*
X199890729Y-64746511D01*
X199776655Y-65320000D01*
X199890729Y-65893489D01*
X200215585Y-66379670D01*
X200530366Y-66590000D01*
X200215585Y-66800330D01*
X199890729Y-67286511D01*
X199776655Y-67860000D01*
X199890729Y-68433489D01*
X200215585Y-68919670D01*
X200530366Y-69130000D01*
X200215585Y-69340330D01*
X199890729Y-69826511D01*
X199776655Y-70400000D01*
X199890729Y-70973489D01*
X200215585Y-71459670D01*
X200530366Y-71670000D01*
X200215585Y-71880330D01*
X199890729Y-72366511D01*
X199776655Y-72940000D01*
X199890729Y-73513489D01*
X200213324Y-73996287D01*
X181660812Y-92548800D01*
X180077255Y-92548800D01*
X179844415Y-92200330D01*
X179534931Y-91993539D01*
X179950732Y-91622036D01*
X180204709Y-91094791D01*
X180207358Y-91079026D01*
X180086217Y-90847000D01*
X178727000Y-90847000D01*
X178727000Y-90867000D01*
X178473000Y-90867000D01*
X178473000Y-90847000D01*
X177113783Y-90847000D01*
X176992642Y-91079026D01*
X176995291Y-91094791D01*
X177249268Y-91622036D01*
X177665069Y-91993539D01*
X177355585Y-92200330D01*
X177238874Y-92375000D01*
X177120005Y-92375000D01*
X177120000Y-92374999D01*
X176837516Y-92431190D01*
X176781325Y-92442367D01*
X176494210Y-92634210D01*
X176494208Y-92634213D01*
X168221387Y-100907033D01*
X168010072Y-100865000D01*
X167949928Y-100865000D01*
X167362509Y-100981845D01*
X166864519Y-101314591D01*
X166705499Y-101552582D01*
X166463287Y-101288293D01*
X174425787Y-93325792D01*
X174425790Y-93325790D01*
X174617633Y-93038675D01*
X174685000Y-92700000D01*
X174685000Y-80000005D01*
X174685001Y-80000000D01*
X174617633Y-79661326D01*
X174617633Y-79661325D01*
X174425790Y-79374210D01*
X174425787Y-79374208D01*
X173625790Y-78574210D01*
X173338675Y-78382367D01*
X173282484Y-78371190D01*
X173000000Y-78314999D01*
X172999995Y-78315000D01*
X167666579Y-78315000D01*
X164292654Y-74941074D01*
X168918494Y-74941074D01*
X169362253Y-76015052D01*
X170183226Y-76837460D01*
X171256428Y-77283092D01*
X172418474Y-77284106D01*
X173492452Y-76840347D01*
X174314860Y-76019374D01*
X174760492Y-74946172D01*
X174761506Y-73784126D01*
X174317747Y-72710148D01*
X173496774Y-71887740D01*
X172423572Y-71442108D01*
X171261526Y-71441094D01*
X170187548Y-71884853D01*
X169365140Y-72705826D01*
X168919508Y-73779028D01*
X168918494Y-74941074D01*
X164292654Y-74941074D01*
X158879981Y-69528401D01*
X158984585Y-69276487D01*
X158985413Y-68327675D01*
X158623084Y-67450771D01*
X157952758Y-66779274D01*
X157076487Y-66415415D01*
X156127675Y-66414587D01*
X155250771Y-66776916D01*
X154579274Y-67447242D01*
X154215415Y-68323513D01*
X154214587Y-69272325D01*
X154576916Y-70149229D01*
X155247242Y-70820726D01*
X156123513Y-71184585D01*
X157072325Y-71185413D01*
X157752706Y-70904286D01*
X166167021Y-79318600D01*
X158784836Y-79318600D01*
X149186100Y-69719864D01*
X149186100Y-57794528D01*
X155085077Y-57794528D01*
X155275364Y-58139271D01*
X156156591Y-58490956D01*
X157105323Y-58478641D01*
X157924636Y-58139271D01*
X158114923Y-57794528D01*
X156600000Y-56279605D01*
X155085077Y-57794528D01*
X149186100Y-57794528D01*
X149186100Y-55656591D01*
X154209044Y-55656591D01*
X154221359Y-56605323D01*
X154560729Y-57424636D01*
X154905472Y-57614923D01*
X156420395Y-56100000D01*
X156779605Y-56100000D01*
X158294528Y-57614923D01*
X158496211Y-57503600D01*
X159816100Y-57503600D01*
X159816100Y-67503600D01*
X159868243Y-67765738D01*
X160016732Y-67987968D01*
X160238962Y-68136457D01*
X160501100Y-68188600D01*
X170501100Y-68188600D01*
X170763238Y-68136457D01*
X170985468Y-67987968D01*
X171133957Y-67765738D01*
X171186100Y-67503600D01*
X171186100Y-57700000D01*
X176916655Y-57700000D01*
X177030729Y-58273489D01*
X177355585Y-58759670D01*
X177670366Y-58970000D01*
X177355585Y-59180330D01*
X177030729Y-59666511D01*
X176916655Y-60240000D01*
X177030729Y-60813489D01*
X177355585Y-61299670D01*
X177670366Y-61510000D01*
X177355585Y-61720330D01*
X177030729Y-62206511D01*
X176916655Y-62780000D01*
X177030729Y-63353489D01*
X177355585Y-63839670D01*
X177670366Y-64050000D01*
X177355585Y-64260330D01*
X177030729Y-64746511D01*
X176916655Y-65320000D01*
X177030729Y-65893489D01*
X177355585Y-66379670D01*
X177670366Y-66590000D01*
X177355585Y-66800330D01*
X177030729Y-67286511D01*
X176916655Y-67860000D01*
X177030729Y-68433489D01*
X177355585Y-68919670D01*
X177670366Y-69130000D01*
X177355585Y-69340330D01*
X177030729Y-69826511D01*
X176916655Y-70400000D01*
X177030729Y-70973489D01*
X177355585Y-71459670D01*
X177670366Y-71670000D01*
X177355585Y-71880330D01*
X177030729Y-72366511D01*
X176916655Y-72940000D01*
X177030729Y-73513489D01*
X177355585Y-73999670D01*
X177670366Y-74210000D01*
X177355585Y-74420330D01*
X177030729Y-74906511D01*
X176916655Y-75480000D01*
X177030729Y-76053489D01*
X177355585Y-76539670D01*
X177670366Y-76750000D01*
X177355585Y-76960330D01*
X177030729Y-77446511D01*
X176916655Y-78020000D01*
X177030729Y-78593489D01*
X177355585Y-79079670D01*
X177670366Y-79290000D01*
X177355585Y-79500330D01*
X177030729Y-79986511D01*
X176916655Y-80560000D01*
X177030729Y-81133489D01*
X177355585Y-81619670D01*
X177670366Y-81830000D01*
X177355585Y-82040330D01*
X177030729Y-82526511D01*
X176916655Y-83100000D01*
X177030729Y-83673489D01*
X177355585Y-84159670D01*
X177670366Y-84370000D01*
X177355585Y-84580330D01*
X177030729Y-85066511D01*
X176916655Y-85640000D01*
X177030729Y-86213489D01*
X177355585Y-86699670D01*
X177670366Y-86910000D01*
X177355585Y-87120330D01*
X177030729Y-87606511D01*
X176916655Y-88180000D01*
X177030729Y-88753489D01*
X177355585Y-89239670D01*
X177665069Y-89446461D01*
X177249268Y-89817964D01*
X176995291Y-90345209D01*
X176992642Y-90360974D01*
X177113783Y-90593000D01*
X178473000Y-90593000D01*
X178473000Y-90573000D01*
X178727000Y-90573000D01*
X178727000Y-90593000D01*
X180086217Y-90593000D01*
X180207358Y-90360974D01*
X180204709Y-90345209D01*
X179950732Y-89817964D01*
X179534931Y-89446461D01*
X179844415Y-89239670D01*
X180169271Y-88753489D01*
X180283345Y-88180000D01*
X180169271Y-87606511D01*
X179844415Y-87120330D01*
X179529634Y-86910000D01*
X179844415Y-86699670D01*
X180169271Y-86213489D01*
X180283345Y-85640000D01*
X180169271Y-85066511D01*
X179844415Y-84580330D01*
X179529634Y-84370000D01*
X179844415Y-84159670D01*
X180169271Y-83673489D01*
X180283345Y-83100000D01*
X180169271Y-82526511D01*
X179844415Y-82040330D01*
X179529634Y-81830000D01*
X179844415Y-81619670D01*
X180169271Y-81133489D01*
X180283345Y-80560000D01*
X180169271Y-79986511D01*
X179844415Y-79500330D01*
X179529634Y-79290000D01*
X179844415Y-79079670D01*
X180169271Y-78593489D01*
X180283345Y-78020000D01*
X180169271Y-77446511D01*
X179844415Y-76960330D01*
X179529634Y-76750000D01*
X179844415Y-76539670D01*
X180169271Y-76053489D01*
X180283345Y-75480000D01*
X180176147Y-74941074D01*
X191143494Y-74941074D01*
X191587253Y-76015052D01*
X192408226Y-76837460D01*
X193481428Y-77283092D01*
X194643474Y-77284106D01*
X195717452Y-76840347D01*
X196539860Y-76019374D01*
X196985492Y-74946172D01*
X196986506Y-73784126D01*
X196542747Y-72710148D01*
X195721774Y-71887740D01*
X194648572Y-71442108D01*
X193486526Y-71441094D01*
X192412548Y-71884853D01*
X191590140Y-72705826D01*
X191144508Y-73779028D01*
X191143494Y-74941074D01*
X180176147Y-74941074D01*
X180169271Y-74906511D01*
X179844415Y-74420330D01*
X179529634Y-74210000D01*
X179844415Y-73999670D01*
X180169271Y-73513489D01*
X180283345Y-72940000D01*
X180169271Y-72366511D01*
X179844415Y-71880330D01*
X179529634Y-71670000D01*
X179844415Y-71459670D01*
X180169271Y-70973489D01*
X180283345Y-70400000D01*
X180169271Y-69826511D01*
X179844415Y-69340330D01*
X179529634Y-69130000D01*
X179844415Y-68919670D01*
X180169271Y-68433489D01*
X180283345Y-67860000D01*
X180169271Y-67286511D01*
X179844415Y-66800330D01*
X179529634Y-66590000D01*
X179844415Y-66379670D01*
X180169271Y-65893489D01*
X180283345Y-65320000D01*
X180169271Y-64746511D01*
X179844415Y-64260330D01*
X179529634Y-64050000D01*
X179844415Y-63839670D01*
X180169271Y-63353489D01*
X180283345Y-62780000D01*
X180169271Y-62206511D01*
X179844415Y-61720330D01*
X179529634Y-61510000D01*
X179844415Y-61299670D01*
X180169271Y-60813489D01*
X180283345Y-60240000D01*
X180169271Y-59666511D01*
X179844415Y-59180330D01*
X179529634Y-58970000D01*
X179844415Y-58759670D01*
X180169271Y-58273489D01*
X180283345Y-57700000D01*
X180169271Y-57126511D01*
X179844415Y-56640330D01*
X179358234Y-56315474D01*
X178784745Y-56201400D01*
X178415255Y-56201400D01*
X177841766Y-56315474D01*
X177355585Y-56640330D01*
X177030729Y-57126511D01*
X176916655Y-57700000D01*
X171186100Y-57700000D01*
X171186100Y-57503600D01*
X171133957Y-57241462D01*
X170985468Y-57019232D01*
X170763238Y-56870743D01*
X170501100Y-56818600D01*
X160501100Y-56818600D01*
X160238962Y-56870743D01*
X160016732Y-57019232D01*
X159868243Y-57241462D01*
X159816100Y-57503600D01*
X158496211Y-57503600D01*
X158639271Y-57424636D01*
X158990956Y-56543409D01*
X158978641Y-55594677D01*
X158639271Y-54775364D01*
X158294528Y-54585077D01*
X156779605Y-56100000D01*
X156420395Y-56100000D01*
X154905472Y-54585077D01*
X154560729Y-54775364D01*
X154209044Y-55656591D01*
X149186100Y-55656591D01*
X149186100Y-55287336D01*
X150067964Y-54405472D01*
X155085077Y-54405472D01*
X156600000Y-55920395D01*
X158114923Y-54405472D01*
X157924636Y-54060729D01*
X157043409Y-53709044D01*
X156094677Y-53721359D01*
X155275364Y-54060729D01*
X155085077Y-54405472D01*
X150067964Y-54405472D01*
X153357562Y-51115874D01*
X168918494Y-51115874D01*
X169362253Y-52189852D01*
X170183226Y-53012260D01*
X171256428Y-53457892D01*
X172418474Y-53458906D01*
X173492452Y-53015147D01*
X174314860Y-52194174D01*
X174760492Y-51120972D01*
X174761506Y-49958926D01*
X174317747Y-48884948D01*
X173496774Y-48062540D01*
X172423572Y-47616908D01*
X171261526Y-47615894D01*
X170187548Y-48059653D01*
X169365140Y-48880626D01*
X168919508Y-49953828D01*
X168918494Y-51115874D01*
X153357562Y-51115874D01*
X158784836Y-45688600D01*
X172217364Y-45688600D01*
X182016732Y-55487968D01*
X182238962Y-55636457D01*
X182501100Y-55688600D01*
X182763238Y-55636457D01*
X182985468Y-55487968D01*
X183133957Y-55265738D01*
X183186100Y-55003600D01*
X183186100Y-45688600D01*
X187501100Y-45688600D01*
X187763238Y-45636457D01*
X187985468Y-45487968D01*
X188133957Y-45265738D01*
X188134224Y-45264397D01*
X191884277Y-45289735D01*
X191884277Y-45289735D01*
G37*
X191884277Y-45289735D02*
X192016732Y-45487968D01*
X192238962Y-45636457D01*
X192501100Y-45688600D01*
X196816100Y-45688600D01*
X196816100Y-49546512D01*
X196542747Y-48884948D01*
X195721774Y-48062540D01*
X194648572Y-47616908D01*
X193486526Y-47615894D01*
X192412548Y-48059653D01*
X191590140Y-48880626D01*
X191144508Y-49953828D01*
X191143494Y-51115874D01*
X191587253Y-52189852D01*
X192408226Y-53012260D01*
X193481428Y-53457892D01*
X194643474Y-53458906D01*
X195717452Y-53015147D01*
X196539860Y-52194174D01*
X196816100Y-51528914D01*
X196816100Y-55003600D01*
X196868243Y-55265738D01*
X197016732Y-55487968D01*
X197238962Y-55636457D01*
X197501100Y-55688600D01*
X197763238Y-55636457D01*
X197985468Y-55487968D01*
X207784836Y-45688600D01*
X221217364Y-45688600D01*
X230816100Y-55287336D01*
X230816100Y-64318600D01*
X222186100Y-64318600D01*
X222186100Y-57003600D01*
X222133957Y-56741462D01*
X221985468Y-56519232D01*
X220584836Y-55118600D01*
X221708812Y-55118600D01*
X224723528Y-58133317D01*
X224663076Y-58158355D01*
X224234817Y-58548642D01*
X223988514Y-59073108D01*
X224109181Y-59303000D01*
X225303000Y-59303000D01*
X225303000Y-59283000D01*
X225557000Y-59283000D01*
X225557000Y-59303000D01*
X225577000Y-59303000D01*
X225577000Y-59557000D01*
X225557000Y-59557000D01*
X225557000Y-59577000D01*
X225303000Y-59577000D01*
X225303000Y-59557000D01*
X224109181Y-59557000D01*
X223988514Y-59786892D01*
X224234817Y-60311358D01*
X224663076Y-60701645D01*
X224663101Y-60701655D01*
X224379946Y-60890853D01*
X224058039Y-61372622D01*
X223945000Y-61940907D01*
X223945000Y-61999093D01*
X224058039Y-62567378D01*
X224379946Y-63049147D01*
X224861715Y-63371054D01*
X225430000Y-63484093D01*
X225998285Y-63371054D01*
X226480054Y-63049147D01*
X226683385Y-62744840D01*
X226710344Y-62810086D01*
X227127717Y-63228188D01*
X227673319Y-63454742D01*
X228264089Y-63455257D01*
X228810086Y-63229656D01*
X229228188Y-62812283D01*
X229454742Y-62266681D01*
X229455257Y-61675911D01*
X229401056Y-61544733D01*
X229572794Y-61372995D01*
X229726962Y-61142265D01*
X229726963Y-61142264D01*
X229781100Y-60870100D01*
X229781100Y-58942700D01*
X229726963Y-58670536D01*
X229645516Y-58548642D01*
X229572794Y-58439805D01*
X224679694Y-53546706D01*
X224448965Y-53392537D01*
X224176800Y-53338400D01*
X209209200Y-53338400D01*
X208982190Y-53383555D01*
X208937035Y-53392537D01*
X208706306Y-53546706D01*
X202851922Y-59401090D01*
X202704415Y-59180330D01*
X202389634Y-58970000D01*
X202704415Y-58759670D01*
X203029271Y-58273489D01*
X203143345Y-57700000D01*
X203029271Y-57126511D01*
X202704415Y-56640330D01*
X202218234Y-56315474D01*
X201644745Y-56201400D01*
X201275255Y-56201400D01*
X200701766Y-56315474D01*
X200215585Y-56640330D01*
X199890729Y-57126511D01*
X199776655Y-57700000D01*
X199890729Y-58273489D01*
X200215585Y-58759670D01*
X200530366Y-58970000D01*
X200215585Y-59180330D01*
X199890729Y-59666511D01*
X199776655Y-60240000D01*
X199890729Y-60813489D01*
X200215585Y-61299670D01*
X200530366Y-61510000D01*
X200215585Y-61720330D01*
X199890729Y-62206511D01*
X199776655Y-62780000D01*
X199890729Y-63353489D01*
X200215585Y-63839670D01*
X200530366Y-64050000D01*
X200215585Y-64260330D01*
X199890729Y-64746511D01*
X199776655Y-65320000D01*
X199890729Y-65893489D01*
X200215585Y-66379670D01*
X200530366Y-66590000D01*
X200215585Y-66800330D01*
X199890729Y-67286511D01*
X199776655Y-67860000D01*
X199890729Y-68433489D01*
X200215585Y-68919670D01*
X200530366Y-69130000D01*
X200215585Y-69340330D01*
X199890729Y-69826511D01*
X199776655Y-70400000D01*
X199890729Y-70973489D01*
X200215585Y-71459670D01*
X200530366Y-71670000D01*
X200215585Y-71880330D01*
X199890729Y-72366511D01*
X199776655Y-72940000D01*
X199890729Y-73513489D01*
X200213324Y-73996287D01*
X181660812Y-92548800D01*
X180077255Y-92548800D01*
X179844415Y-92200330D01*
X179534931Y-91993539D01*
X179950732Y-91622036D01*
X180204709Y-91094791D01*
X180207358Y-91079026D01*
X180086217Y-90847000D01*
X178727000Y-90847000D01*
X178727000Y-90867000D01*
X178473000Y-90867000D01*
X178473000Y-90847000D01*
X177113783Y-90847000D01*
X176992642Y-91079026D01*
X176995291Y-91094791D01*
X177249268Y-91622036D01*
X177665069Y-91993539D01*
X177355585Y-92200330D01*
X177238874Y-92375000D01*
X177120005Y-92375000D01*
X177120000Y-92374999D01*
X176837516Y-92431190D01*
X176781325Y-92442367D01*
X176494210Y-92634210D01*
X176494208Y-92634213D01*
X168221387Y-100907033D01*
X168010072Y-100865000D01*
X167949928Y-100865000D01*
X167362509Y-100981845D01*
X166864519Y-101314591D01*
X166705499Y-101552582D01*
X166463287Y-101288293D01*
X174425787Y-93325792D01*
X174425790Y-93325790D01*
X174617633Y-93038675D01*
X174685000Y-92700000D01*
X174685000Y-80000005D01*
X174685001Y-80000000D01*
X174617633Y-79661326D01*
X174617633Y-79661325D01*
X174425790Y-79374210D01*
X174425787Y-79374208D01*
X173625790Y-78574210D01*
X173338675Y-78382367D01*
X173282484Y-78371190D01*
X173000000Y-78314999D01*
X172999995Y-78315000D01*
X167666579Y-78315000D01*
X164292654Y-74941074D01*
X168918494Y-74941074D01*
X169362253Y-76015052D01*
X170183226Y-76837460D01*
X171256428Y-77283092D01*
X172418474Y-77284106D01*
X173492452Y-76840347D01*
X174314860Y-76019374D01*
X174760492Y-74946172D01*
X174761506Y-73784126D01*
X174317747Y-72710148D01*
X173496774Y-71887740D01*
X172423572Y-71442108D01*
X171261526Y-71441094D01*
X170187548Y-71884853D01*
X169365140Y-72705826D01*
X168919508Y-73779028D01*
X168918494Y-74941074D01*
X164292654Y-74941074D01*
X158879981Y-69528401D01*
X158984585Y-69276487D01*
X158985413Y-68327675D01*
X158623084Y-67450771D01*
X157952758Y-66779274D01*
X157076487Y-66415415D01*
X156127675Y-66414587D01*
X155250771Y-66776916D01*
X154579274Y-67447242D01*
X154215415Y-68323513D01*
X154214587Y-69272325D01*
X154576916Y-70149229D01*
X155247242Y-70820726D01*
X156123513Y-71184585D01*
X157072325Y-71185413D01*
X157752706Y-70904286D01*
X166167021Y-79318600D01*
X158784836Y-79318600D01*
X149186100Y-69719864D01*
X149186100Y-57794528D01*
X155085077Y-57794528D01*
X155275364Y-58139271D01*
X156156591Y-58490956D01*
X157105323Y-58478641D01*
X157924636Y-58139271D01*
X158114923Y-57794528D01*
X156600000Y-56279605D01*
X155085077Y-57794528D01*
X149186100Y-57794528D01*
X149186100Y-55656591D01*
X154209044Y-55656591D01*
X154221359Y-56605323D01*
X154560729Y-57424636D01*
X154905472Y-57614923D01*
X156420395Y-56100000D01*
X156779605Y-56100000D01*
X158294528Y-57614923D01*
X158496211Y-57503600D01*
X159816100Y-57503600D01*
X159816100Y-67503600D01*
X159868243Y-67765738D01*
X160016732Y-67987968D01*
X160238962Y-68136457D01*
X160501100Y-68188600D01*
X170501100Y-68188600D01*
X170763238Y-68136457D01*
X170985468Y-67987968D01*
X171133957Y-67765738D01*
X171186100Y-67503600D01*
X171186100Y-57700000D01*
X176916655Y-57700000D01*
X177030729Y-58273489D01*
X177355585Y-58759670D01*
X177670366Y-58970000D01*
X177355585Y-59180330D01*
X177030729Y-59666511D01*
X176916655Y-60240000D01*
X177030729Y-60813489D01*
X177355585Y-61299670D01*
X177670366Y-61510000D01*
X177355585Y-61720330D01*
X177030729Y-62206511D01*
X176916655Y-62780000D01*
X177030729Y-63353489D01*
X177355585Y-63839670D01*
X177670366Y-64050000D01*
X177355585Y-64260330D01*
X177030729Y-64746511D01*
X176916655Y-65320000D01*
X177030729Y-65893489D01*
X177355585Y-66379670D01*
X177670366Y-66590000D01*
X177355585Y-66800330D01*
X177030729Y-67286511D01*
X176916655Y-67860000D01*
X177030729Y-68433489D01*
X177355585Y-68919670D01*
X177670366Y-69130000D01*
X177355585Y-69340330D01*
X177030729Y-69826511D01*
X176916655Y-70400000D01*
X177030729Y-70973489D01*
X177355585Y-71459670D01*
X177670366Y-71670000D01*
X177355585Y-71880330D01*
X177030729Y-72366511D01*
X176916655Y-72940000D01*
X177030729Y-73513489D01*
X177355585Y-73999670D01*
X177670366Y-74210000D01*
X177355585Y-74420330D01*
X177030729Y-74906511D01*
X176916655Y-75480000D01*
X177030729Y-76053489D01*
X177355585Y-76539670D01*
X177670366Y-76750000D01*
X177355585Y-76960330D01*
X177030729Y-77446511D01*
X176916655Y-78020000D01*
X177030729Y-78593489D01*
X177355585Y-79079670D01*
X177670366Y-79290000D01*
X177355585Y-79500330D01*
X177030729Y-79986511D01*
X176916655Y-80560000D01*
X177030729Y-81133489D01*
X177355585Y-81619670D01*
X177670366Y-81830000D01*
X177355585Y-82040330D01*
X177030729Y-82526511D01*
X176916655Y-83100000D01*
X177030729Y-83673489D01*
X177355585Y-84159670D01*
X177670366Y-84370000D01*
X177355585Y-84580330D01*
X177030729Y-85066511D01*
X176916655Y-85640000D01*
X177030729Y-86213489D01*
X177355585Y-86699670D01*
X177670366Y-86910000D01*
X177355585Y-87120330D01*
X177030729Y-87606511D01*
X176916655Y-88180000D01*
X177030729Y-88753489D01*
X177355585Y-89239670D01*
X177665069Y-89446461D01*
X177249268Y-89817964D01*
X176995291Y-90345209D01*
X176992642Y-90360974D01*
X177113783Y-90593000D01*
X178473000Y-90593000D01*
X178473000Y-90573000D01*
X178727000Y-90573000D01*
X178727000Y-90593000D01*
X180086217Y-90593000D01*
X180207358Y-90360974D01*
X180204709Y-90345209D01*
X179950732Y-89817964D01*
X179534931Y-89446461D01*
X179844415Y-89239670D01*
X180169271Y-88753489D01*
X180283345Y-88180000D01*
X180169271Y-87606511D01*
X179844415Y-87120330D01*
X179529634Y-86910000D01*
X179844415Y-86699670D01*
X180169271Y-86213489D01*
X180283345Y-85640000D01*
X180169271Y-85066511D01*
X179844415Y-84580330D01*
X179529634Y-84370000D01*
X179844415Y-84159670D01*
X180169271Y-83673489D01*
X180283345Y-83100000D01*
X180169271Y-82526511D01*
X179844415Y-82040330D01*
X179529634Y-81830000D01*
X179844415Y-81619670D01*
X180169271Y-81133489D01*
X180283345Y-80560000D01*
X180169271Y-79986511D01*
X179844415Y-79500330D01*
X179529634Y-79290000D01*
X179844415Y-79079670D01*
X180169271Y-78593489D01*
X180283345Y-78020000D01*
X180169271Y-77446511D01*
X179844415Y-76960330D01*
X179529634Y-76750000D01*
X179844415Y-76539670D01*
X180169271Y-76053489D01*
X180283345Y-75480000D01*
X180176147Y-74941074D01*
X191143494Y-74941074D01*
X191587253Y-76015052D01*
X192408226Y-76837460D01*
X193481428Y-77283092D01*
X194643474Y-77284106D01*
X195717452Y-76840347D01*
X196539860Y-76019374D01*
X196985492Y-74946172D01*
X196986506Y-73784126D01*
X196542747Y-72710148D01*
X195721774Y-71887740D01*
X194648572Y-71442108D01*
X193486526Y-71441094D01*
X192412548Y-71884853D01*
X191590140Y-72705826D01*
X191144508Y-73779028D01*
X191143494Y-74941074D01*
X180176147Y-74941074D01*
X180169271Y-74906511D01*
X179844415Y-74420330D01*
X179529634Y-74210000D01*
X179844415Y-73999670D01*
X180169271Y-73513489D01*
X180283345Y-72940000D01*
X180169271Y-72366511D01*
X179844415Y-71880330D01*
X179529634Y-71670000D01*
X179844415Y-71459670D01*
X180169271Y-70973489D01*
X180283345Y-70400000D01*
X180169271Y-69826511D01*
X179844415Y-69340330D01*
X179529634Y-69130000D01*
X179844415Y-68919670D01*
X180169271Y-68433489D01*
X180283345Y-67860000D01*
X180169271Y-67286511D01*
X179844415Y-66800330D01*
X179529634Y-66590000D01*
X179844415Y-66379670D01*
X180169271Y-65893489D01*
X180283345Y-65320000D01*
X180169271Y-64746511D01*
X179844415Y-64260330D01*
X179529634Y-64050000D01*
X179844415Y-63839670D01*
X180169271Y-63353489D01*
X180283345Y-62780000D01*
X180169271Y-62206511D01*
X179844415Y-61720330D01*
X179529634Y-61510000D01*
X179844415Y-61299670D01*
X180169271Y-60813489D01*
X180283345Y-60240000D01*
X180169271Y-59666511D01*
X179844415Y-59180330D01*
X179529634Y-58970000D01*
X179844415Y-58759670D01*
X180169271Y-58273489D01*
X180283345Y-57700000D01*
X180169271Y-57126511D01*
X179844415Y-56640330D01*
X179358234Y-56315474D01*
X178784745Y-56201400D01*
X178415255Y-56201400D01*
X177841766Y-56315474D01*
X177355585Y-56640330D01*
X177030729Y-57126511D01*
X176916655Y-57700000D01*
X171186100Y-57700000D01*
X171186100Y-57503600D01*
X171133957Y-57241462D01*
X170985468Y-57019232D01*
X170763238Y-56870743D01*
X170501100Y-56818600D01*
X160501100Y-56818600D01*
X160238962Y-56870743D01*
X160016732Y-57019232D01*
X159868243Y-57241462D01*
X159816100Y-57503600D01*
X158496211Y-57503600D01*
X158639271Y-57424636D01*
X158990956Y-56543409D01*
X158978641Y-55594677D01*
X158639271Y-54775364D01*
X158294528Y-54585077D01*
X156779605Y-56100000D01*
X156420395Y-56100000D01*
X154905472Y-54585077D01*
X154560729Y-54775364D01*
X154209044Y-55656591D01*
X149186100Y-55656591D01*
X149186100Y-55287336D01*
X150067964Y-54405472D01*
X155085077Y-54405472D01*
X156600000Y-55920395D01*
X158114923Y-54405472D01*
X157924636Y-54060729D01*
X157043409Y-53709044D01*
X156094677Y-53721359D01*
X155275364Y-54060729D01*
X155085077Y-54405472D01*
X150067964Y-54405472D01*
X153357562Y-51115874D01*
X168918494Y-51115874D01*
X169362253Y-52189852D01*
X170183226Y-53012260D01*
X171256428Y-53457892D01*
X172418474Y-53458906D01*
X173492452Y-53015147D01*
X174314860Y-52194174D01*
X174760492Y-51120972D01*
X174761506Y-49958926D01*
X174317747Y-48884948D01*
X173496774Y-48062540D01*
X172423572Y-47616908D01*
X171261526Y-47615894D01*
X170187548Y-48059653D01*
X169365140Y-48880626D01*
X168919508Y-49953828D01*
X168918494Y-51115874D01*
X153357562Y-51115874D01*
X158784836Y-45688600D01*
X172217364Y-45688600D01*
X182016732Y-55487968D01*
X182238962Y-55636457D01*
X182501100Y-55688600D01*
X182763238Y-55636457D01*
X182985468Y-55487968D01*
X183133957Y-55265738D01*
X183186100Y-55003600D01*
X183186100Y-45688600D01*
X187501100Y-45688600D01*
X187763238Y-45636457D01*
X187985468Y-45487968D01*
X188133957Y-45265738D01*
X188134224Y-45264397D01*
X191884277Y-45289735D01*
M02*
